 <svg xmlns="http://www.w3.org/2000/svg" viewBox="0 0 24 31">
          <path d="M22.64.006H5.05a.758.758 0 0 0-.485.2L.168 4.67A.68.68 0 0 0 0 4.98V29.69c0 .383.305.692.682.692h21.952c.377 0 .682-.31.682-.692V.692A.687.687 0 0 0 22.634 0l.006.006ZM4.369 2.38v2.083H2.316L4.37 2.38ZM21.958 29H1.34V5.847h3.716c.377 0 .682-.31.682-.692v-3.77h16.225v27.614h-.006Z"/>
          <path d="M5.052 10.043a.687.687 0 0 0-.682.692c0 .383.305.693.682.693h6.595c.377 0 .683-.31.683-.693a.687.687 0 0 0-.683-.692H5.052ZM4.376 15.192c0 .382.305.692.682.692h13.19c.377 0 .683-.31.683-.692a.687.687 0 0 0-.683-.693H5.058a.687.687 0 0 0-.682.693ZM18.248 18.962H5.058a.687.687 0 0 0-.682.693c0 .382.305.692.682.692h13.19c.377 0 .683-.31.683-.692a.687.687 0 0 0-.683-.693ZM18.248 23.425H5.058a.687.687 0 0 0-.682.693c0 .382.305.692.682.692h13.19c.377 0 .683-.31.683-.692a.687.687 0 0 0-.683-.692Z"/>
        </svg>