<svg xmlns="http://www.w3.org/2000/svg" viewBox="0 0 30 31">
            <path d="M25.548 4.44C16.26-5.094 0 1.761 0 15.173c.03 8.392 6.727 15.174 14.986 15.18 13.214.06 19.946-16.491 10.568-25.92l-.006.005Zm2.574 14.535H20.97a22.456 22.456 0 0 0 0-7.644h7.152c.7 2.508.7 5.16 0 7.662v-.018Zm-17.816 0a20.78 20.78 0 0 1 0-7.644h9.342a20.777 20.777 0 0 1 0 7.644h-9.342Zm9.042 1.3a20.387 20.387 0 0 1-4.374 8.403 20.476 20.476 0 0 1-4.375-8.38l8.75-.017v-.006Zm-18.037-5.1c0-1.294.185-2.581.532-3.82h7.152a22.457 22.457 0 0 0 0 7.645H1.837a14.45 14.45 0 0 1-.532-3.82l.006-.006Zm9.3-5.12a20.476 20.476 0 0 1 4.374-8.378 20.476 20.476 0 0 1 4.375 8.379h-8.75Zm17.08 0h-7.02a21.692 21.692 0 0 0-4.261-8.688c5.057.546 9.402 3.892 11.28 8.689ZM5.314 5.357a13.556 13.556 0 0 1 8.247-3.989 21.654 21.654 0 0 0-4.26 8.689H2.28A13.89 13.89 0 0 1 5.313 5.35v.006ZM2.25 20.3h7.02a21.693 21.693 0 0 0 4.261 8.689c-5.045-.559-9.372-3.898-11.25-8.69h-.03Zm22.37 4.706a13.521 13.521 0 0 1-8.258 3.989 21.637 21.637 0 0 0 4.273-8.69h7.02a13.722 13.722 0 0 1-3.004 4.707h-.03v-.006Z"/>
          </svg>