 <svg xmlns="http://www.w3.org/2000/svg" viewBox="0 0 43 20">
    <path d="M16.483 2.864C10.49-3.286 0 1.137 0 9.79c.02 5.414 4.34 9.79 9.668 9.793 8.525.04 12.869-10.64 6.819-16.723l-.004.004Zm1.66 9.378H13.53c.282-1.63.282-3.298 0-4.932h4.614a9.185 9.185 0 0 1 0 4.944v-.012Zm-11.494 0a13.405 13.405 0 0 1 0-4.932h6.027c.305 1.63.305 3.303 0 4.932H6.649Zm5.834.838a13.155 13.155 0 0 1-2.823 5.422 13.21 13.21 0 0 1-2.822-5.406l5.645-.012v-.004ZM.846 9.79c0-.835.12-1.665.343-2.464h4.614a14.488 14.488 0 0 0 0 4.932H1.185a9.322 9.322 0 0 1-.343-2.464l.004-.004Zm6-3.302a13.21 13.21 0 0 1 2.822-5.406 13.21 13.21 0 0 1 2.823 5.406H6.846Zm11.02 0h-4.53A13.995 13.995 0 0 0 10.587.882c3.263.352 6.066 2.51 7.278 5.606ZM3.428 3.456A8.746 8.746 0 0 1 8.749.882 13.97 13.97 0 0 0 6 6.488H1.471A8.96 8.96 0 0 1 3.43 3.452v.004Zm-1.977 9.64H5.98a13.995 13.995 0 0 0 2.749 5.606c-3.255-.36-6.047-2.515-7.259-5.606h-.02Zm14.432 3.036a8.723 8.723 0 0 1-5.328 2.574 13.96 13.96 0 0 0 2.757-5.606h4.529a8.85 8.85 0 0 1-1.938 3.036h-.02v-.004ZM41.606.004H30.26a.489.489 0 0 0-.313.13l-2.838 2.878a.44.44 0 0 0-.108.2v15.944c0 .246.197.446.44.446h14.162c.244 0 .44-.2.44-.447V.448a.443.443 0 0 0-.44-.447l.004.004ZM29.82 1.536v1.343h-1.325l1.325-1.343Zm11.347 17.173H27.865V3.772h2.398c.243 0 .44-.2.44-.446V.893H41.17V18.71h-.004Z"/>
    <path d="M30.26 6.48c-.244 0-.44.2-.44.446 0 .247.196.447.44.447h4.254c.243 0 .44-.2.44-.447a.443.443 0 0 0-.44-.447H30.26ZM29.823 9.801c0 .247.197.447.44.447h8.51c.243 0 .44-.2.44-.447a.443.443 0 0 0-.44-.447h-8.51c-.243 0-.44.2-.44.447ZM38.773 12.234h-8.51c-.243 0-.44.2-.44.447 0 .246.197.446.44.446h8.51c.243 0 .44-.2.44-.447a.443.443 0 0 0-.44-.446ZM38.773 15.113h-8.51c-.243 0-.44.2-.44.447 0 .246.197.446.44.446h8.51c.243 0 .44-.2.44-.446a.443.443 0 0 0-.44-.447ZM22 .938v18.125c0 .518.224.937.5.937s.5-.42.5-.938V.938C23 .42 22.776 0 22.5 0s-.5.42-.5.938Z"/>
  </svg>