<svg xmlns="http://www.w3.org/2000/svg" xmlns:xlink="http://www.w3.org/1999/xlink" xml:space="preserve" id="Layer_2" x="0" y="0" style="enable-background:new 0 0 1440 300" version="1.1" viewBox="0 0 1440 300"><style>.st1{fill:none;stroke:#000;stroke-width:2;stroke-linecap:round;stroke-linejoin:round}.st11{fill:#4d4d4d}.st13{stroke:#000;stroke-width:2;stroke-linecap:round;stroke-linejoin:round;stroke-dasharray:1.042996e-02,4.172}.st13,.st15{fill:none}.st20{stroke-dasharray:1.083780e-02,4.3351}.st20,.st21,.st24,.st29,.st37,.st38,.st39,.st42,.st43,.st45{fill:none;stroke:#000;stroke-width:2;stroke-linecap:round;stroke-linejoin:round}.st21{stroke-dasharray:1.045382e-02,4.1815}.st24{stroke-dasharray:1.031974e-02,4.1279}.st29{stroke-dasharray:1.100726e-02,4.4029}.st37{stroke-dasharray:0,3.6534}.st38{stroke-dasharray:0,3.6451}.st39{stroke-dasharray:0,3.9054}.st42{stroke-dasharray:1.043032e-02,4.1721}.st43{stroke-dasharray:1.049882e-02,4.1995}.st45{stroke-dasharray:1.033760e-02,4.135}.st47{fill:#e00}.st105,.st111{fill:none;stroke:#000;stroke-width:2;stroke-linecap:round;stroke-linejoin:round}.st53{stroke-dasharray:0,3.7903}.st53,.st57,.st70,.st84,.st92,.st94{fill:none;stroke:#000;stroke-width:2;stroke-linecap:round;stroke-linejoin:round}.st57{stroke-dasharray:0,2.888}.st70{stroke-dasharray:1.014678e-02,4.0587}.st84{stroke-dasharray:1.026948e-02,4.1078}.st92{stroke-dasharray:1.045710e-02,4.1828}.st94{stroke-dasharray:0,3.9976}.st105{stroke-dasharray:1.045747e-02,4.183}.st111{stroke-dasharray:1.045385e-02,4.1815}</style><switch><g><defs><path id="SVGID_00000037678455850353474860000005996137409265820050_" d="M0 0h1440v300H0z" transform="rotate(-180 720 150)"/></defs><use xlink:href="#SVGID_00000037678455850353474860000005996137409265820050_" style="overflow:visible;fill:#2e2e2e"/><clipPath id="SVGID_00000169529390609601351880000010746474372911676337_"><use xlink:href="#SVGID_00000037678455850353474860000005996137409265820050_" style="overflow:visible"/></clipPath><g style="clip-path:url(#SVGID_00000169529390609601351880000010746474372911676337_)"><path d="M169.2 20.1h0" class="st1"/><path d="M169.2 24.2v6.3" class="st13"/><path d="M169.2 32.6h0" class="st1"/><path d="M169.2-1.1v2.4" style="fill:none;stroke:#000;stroke-width:2;stroke-linecap:round;stroke-linejoin:round;stroke-dasharray:1.213429e-02,4.8537"/><path d="M169.2 3.7h0" class="st1"/><path d="M38.9 145.3c-7.3 0-13.2-5.5-13.2-12.2v-1l26.5-5.2v6.2c0 6.8-6 12.2-13.3 12.2z"/><path d="m38.9 117 13.1 2.5v6.6l-26.2 5.1v-11.7z" class="st15"/><path d="m52.4 118.5-13.3-2.6h-.3l-13.3 2.6c-.3.1-.6.4-.6.7v14.1c0 7.1 6.3 13 14.1 13s14.1-5.8 14.1-13v-14.1c-.1-.4-.4-.6-.7-.7zm-13.5-1.2 12.5 2.5v6.3L26.3 131v-11.2l12.6-2.5zm0 27.6c-6.9 0-12.5-5.2-12.5-11.6v-1l25.1-4.9v5.9c0 6.4-5.7 11.6-12.6 11.6z" class="st11"/><path d="M14.2 51.3h0" class="st1"/><path d="M17.5 51.3h1.7" style="fill:none;stroke:#000;stroke-width:2;stroke-linecap:round;stroke-linejoin:round;stroke-dasharray:0,3.3356"/><path d="M20.9 51.3h0m2.2 78.8h0" class="st1"/><path d="M18.6 130.1h-2.2" style="fill:none;stroke:#000;stroke-width:2;stroke-linecap:round;stroke-linejoin:round;stroke-dasharray:1.117638e-02,4.4706"/><path d="M14.1 130.1h0m18.4-37h0" class="st1"/><path d="m29.5 96-19.2 19.3" style="fill:none;stroke:#000;stroke-width:2;stroke-linecap:round;stroke-linejoin:round;stroke-dasharray:1.046032e-02,4.1841"/><path d="M8.8 116.8h0M32.6 9.6h0" class="st1"/><path d="M29.6 6.6 10.2-12.8" style="fill:none;stroke:#000;stroke-width:2;stroke-linecap:round;stroke-linejoin:round;stroke-dasharray:1.051864e-02,4.2075"/><path d="M82.3 30.6h0" class="st1"/><path d="M82.3 34.9v6.6" class="st20"/><path d="M82.3 43.6h0m0 15.4h0" class="st1"/><path d="M82.3 63.3v6.5" class="st20"/><path d="M82.3 72h0m.1 37.4h0" class="st1"/><path d="M82.4 113.5v6.3" class="st21"/><path d="M82.4 121.9h0m0 16.4h0" class="st1"/><path d="M82.4 142.4v6.3" class="st21"/><path d="M82.4 150.8h0M63.7 90.7h0" class="st1"/><path d="M59.6 90.7H49.2" style="fill:none;stroke:#000;stroke-width:2;stroke-linecap:round;stroke-linejoin:round;stroke-dasharray:1.035312e-02,4.1412"/><path d="M47.1 90.7h0m53.9 0h0" class="st1"/><path d="M104.7 90.7h1.8" style="fill:none;stroke:#000;stroke-width:2;stroke-linecap:round;stroke-linejoin:round;stroke-dasharray:0,3.6602"/><path d="M108.4 90.7h0" class="st1"/><path d="M173.5 90.3h-3.6v-3.6c0-.4-.3-.8-.8-.8-.4 0-.8.3-.8.8v3.6h-3.6c-.4 0-.8.3-.8.8 0 .4.3.8.8.8h3.6v3.6c0 .4.3.8.8.8.4 0 .8-.3.8-.8v-3.6h3.6c.4 0 .8-.3.8-.8-.1-.5-.4-.8-.8-.8zm260.5 0h-3.6v-3.6c0-.4-.3-.8-.8-.8-.4 0-.8.3-.8.8v3.6h-3.6c-.4 0-.8.3-.8.8 0 .4.3.8.8.8h3.6v3.6c0 .4.3.8.8.8.4 0 .8-.3.8-.8v-3.6h3.6c.4 0 .8-.3.8-.8s-.3-.8-.8-.8z" class="st11"/><path d="M63.6 11.9h0" class="st1"/><path d="M59.5 11.9H49.2" class="st24"/><path d="M47.1 11.9h0m53.9 0h0" class="st1"/><path d="M104.5 11.9h1.8" style="fill:none;stroke:#000;stroke-width:2;stroke-linecap:round;stroke-linejoin:round;stroke-dasharray:0,3.5256"/><path d="M108 11.9h0M69.1 25.1h0" class="st1"/><path d="M66.2 28 53.3 40.9" style="fill:none;stroke:#000;stroke-width:2;stroke-linecap:round;stroke-linejoin:round;stroke-dasharray:1.015813e-02,4.0633"/><path d="M51.8 42.4h0m43.7-17.3h0" class="st1"/><path d="m98.4 28 21.8 21.8" style="fill:none;stroke:#000;stroke-width:2;stroke-linecap:round;stroke-linejoin:round;stroke-dasharray:1.026956e-02,4.1078"/><path d="M121.7 51.3h0M169.2 70h0" class="st1"/><path d="M169.2 74.4V81" class="st29"/><path d="M169.2 83.2h0" class="st1"/><path d="M150.5 51.3h-9.2" class="st15"/><path d="M187.8 51.3h0" class="st1"/><path d="M190.6 51.3h1.4" style="fill:none;stroke:#000;stroke-width:2;stroke-linecap:round;stroke-linejoin:round;stroke-dasharray:0,2.79"/><path d="M193.4 51.3h0m-71.7 0h0" class="st1"/><path d="M125.8 51.3h22.6" style="fill:none;stroke:#000;stroke-width:2;stroke-linecap:round;stroke-linejoin:round;stroke-dasharray:1.024666e-02,4.0987"/><path d="M150.5 51.3h0m5.5 13.2h0" class="st1"/><path d="m153.1 67.4-13.4 13.4" style="fill:none;stroke:#000;stroke-width:2;stroke-linecap:round;stroke-linejoin:round;stroke-dasharray:1.042937e-02,4.1718"/><path d="M138.3 82.2h0m78.3 47.9h0" class="st1"/><path d="M212.5 130.1h-22.7" style="fill:none;stroke:#000;stroke-width:2;stroke-linecap:round;stroke-linejoin:round;stroke-dasharray:1.027506e-02,4.11"/><path d="M187.8 130.1h0m-37.3 0h0" class="st1"/><path d="M146.8 130.1H145" style="fill:none;stroke:#000;stroke-width:2;stroke-linecap:round;stroke-linejoin:round;stroke-dasharray:0,3.6398"/><path d="M143.2 130.1h0m-37.8 0h0" class="st1"/><path d="M101.6 130.1h-9.3" style="fill:none;stroke:#000;stroke-width:2;stroke-linecap:round;stroke-linejoin:round;stroke-dasharray:0,3.7141"/><path d="M90.5 130.1h0m78.6-31.9h0" class="st1"/><path d="M169.1 102.6v6.6" class="st29"/><path d="M169.1 111.4h0m-13.2 31.9h0" class="st1"/><path d="m153.2 146.1-43.1 43" style="fill:none;stroke:#000;stroke-width:2;stroke-linecap:round;stroke-linejoin:round;stroke-dasharray:0,3.9151"/><path d="M108.7 190.5h0" class="st1"/><path d="M-4.4 32.6c-3.6 0-7.1 1-10.1 2.9-.4.2-.5.7-.2 1.1.2.4.7.5 1.1.2 2.5-1.6 5.4-2.5 8.4-2.7v5.3c-10 .6-14.7 13.2-7.5 20.1 3.5 3.6 9.8 4.6 14.2 1.9.4-.2.5-.7.3-1.1-.2-.4-.7-.5-1.1-.3-3.6 2.3-8.7 1.8-11.7-.9l3.8-3.8c3.1 2.4 7.9-.1 7.8-4 0-2.7-2.2-4.9-4.9-4.9-1 0-1 1.6 0 1.6 1.8 0 3.3 1.5 3.3 3.3-.1 4.4-6.5 4.4-6.7 0 0-.4-.4-.8-.8-.8-1.6.2-.4 2.9.1 3.7l-3.8 3.8c-5.7-6.4-.9-17 7.8-16.8.4 0 .8-.4.8-.8v-6c8.8.4 15.8 7.5 16.2 16.2H7.3c-.3-3.9-2.4-7.5-5.8-9.4-.4-.2-.9-.1-1.1.3-.2.4-.1.9.3 1.1 3.1 1.8 5.1 5.2 5.1 8.8 0 1.8-.5 3.6-1.4 5.1-.2.4-.1.9.3 1.1 1.7.8 2.5-4.2 2.6-5.4h5.3c-1.8 22.1-33.3 21.4-34.1-.8 0-2.3.4-4.5 1.3-6.6.4-1-1.1-1.6-1.5-.6C-26.9 56-17.5 70.3-4.4 70c24.8-1 24.8-36.4 0-37.4zm-.1 78.8c-3.6 0-7.1 1-10.1 2.9-.4.2-.5.7-.2 1.1.2.4.7.5 1.1.2 2.5-1.6 5.4-2.5 8.4-2.7v5.3c-10 .6-14.7 13.2-7.5 20.1 3.5 3.6 9.8 4.6 14.2 1.9.4-.2.5-.7.3-1.1-.2-.4-.7-.5-1.1-.3-3.6 2.2-8.7 1.7-11.7-1.1l3.8-3.8c3.1 2.4 7.9-.1 7.8-4 0-2.7-2.2-4.9-4.9-4.9-1 0-1 1.6 0 1.6 1.8 0 3.3 1.5 3.3 3.3-.1 4.4-6.5 4.4-6.7 0 0-.4-.4-.8-.8-.8-1.6.2-.4 2.9.1 3.7l-3.8 3.8c-5.7-6.4-.9-17 7.8-16.8.4 0 .8-.4.8-.8v-6c8.8.4 15.8 7.5 16.2 16.2H7.3c-.3-3.9-2.4-7.5-5.8-9.4-.4-.2-.9-.1-1.1.3-.2.4-.1.9.3 1.1 3.1 1.8 5.1 5.2 5.1 8.8 0 1.8-.5 3.6-1.4 5.1-.2.4-.1.9.3 1.1 1.7.8 2.5-4.2 2.6-5.4h5.3c-1.8 22.1-33.3 21.4-34.1-.8 0-2.3.4-4.5 1.3-6.6.4-1-1.1-1.6-1.5-.6-5.2 11.9 4.2 26.1 17.3 25.9 24.7-.9 24.7-36.3-.1-37.3zM82.4 72c-3.6 0-7.1 1-10.1 2.9-.4.2-.5.7-.2 1.1.2.4.7.5 1.1.2 2.5-1.6 5.4-2.5 8.4-2.7v5.3c-10 .6-14.7 13.2-7.5 20.1 3.5 3.6 9.8 4.6 14.2 1.9.4-.2.5-.7.3-1.1-.2-.4-.7-.5-1.1-.3-3.6 2.2-8.7 1.7-11.7-1.1l3.8-3.8c3.1 2.4 7.9-.1 7.8-4 0-2.7-2.2-4.9-4.9-4.9-1 0-1 1.6 0 1.6 1.8 0 3.3 1.5 3.3 3.3-.1 4.4-6.5 4.4-6.7 0 0-.4-.4-.8-.8-.8-1.6.2-.4 2.9.1 3.7l-3.8 3.8c-5.7-6.4-.9-17 7.8-16.8.4 0 .8-.4.8-.8v-6C92 74 99 81.1 99.4 89.8h-5.3c-.3-3.9-2.4-7.5-5.8-9.4-.4-.2-.9-.1-1.1.3-.2.4-.1.9.3 1.1 3.1 1.8 5.1 5.2 5.1 8.8 0 1.8-.5 3.6-1.4 5.1-.2.4-.1.9.3 1.1 1.7.8 2.5-4.2 2.6-5.4h5.3c-1.8 22.1-33.3 21.4-34.1-.8 0-2.3.4-4.5 1.3-6.6.4-1-1.1-1.6-1.5-.6-5.2 11.9 4.2 26.1 17.3 25.9 24.8-.9 24.8-36.3 0-37.3zm0-78.8c-3.6 0-7.1 1-10.1 2.9-.4.2-.5.7-.2 1.1.2.4.7.5 1.1.2 2.5-1.6 5.4-2.5 8.4-2.7V0c-10 .6-14.7 13.2-7.5 20.1 3.5 3.6 9.8 4.6 14.2 1.9.4-.2.5-.7.3-1.1-.2-.4-.7-.5-1.1-.3-3.6 2.2-8.7 1.7-11.7-1.1l3.8-3.8c3.1 2.4 7.9-.1 7.8-4 0-2.7-2.2-4.9-4.9-4.9-1 0-1 1.6 0 1.6 1.8 0 3.3 1.5 3.3 3.3-.1 4.4-6.5 4.4-6.7 0 0-.4-.4-.8-.8-.8-1.6.2-.4 2.9.1 3.7l-3.8 3.8c-5.7-6.4-.9-17 7.8-16.8.4 0 .8-.4.8-.8v-6C92-4.7 99 2.3 99.4 11.1h-5.3c-.3-3.9-2.4-7.5-5.8-9.4-.4-.2-.9-.1-1.1.3-.2.4-.1.9.3 1.1 3.1 1.8 5.1 5.2 5.1 8.8 0 1.8-.5 3.6-1.4 5.1-.2.4-.1.9.3 1.1 1.7.8 2.5-4.2 2.6-5.4h5.3c-1.8 22.1-33.3 21.4-34.1-.8 0-2.3.4-4.5 1.3-6.6.4-1-1.1-1.6-1.5-.6-5.2 11.9 4.2 26.1 17.3 25.9 24.8-1 24.8-36.4 0-37.4z"/><path d="M237.3 11.9h0" class="st1"/><path d="M233.6 11.9h-1.8" class="st37"/><path d="M230 11.9h0m44.6 0h0" class="st1"/><path d="M278.2 11.9H291" class="st38"/><path d="M292.9 11.9h0m-28.7 39.4h0" class="st1"/><path d="M268.1 51.3h64.6" class="st39"/><path d="M334.6 51.3h0m-102.6 0h0" class="st1"/><path d="M235.9 51.3h9.9" style="fill:none;stroke:#000;stroke-width:2;stroke-linecap:round;stroke-linejoin:round;stroke-dasharray:0,3.9593"/><path d="M247.8 51.3h0m-5-26.2h0" class="st1"/><path d="m239.8 28-7.4 7.4" style="fill:none;stroke:#000;stroke-width:2;stroke-linecap:round;stroke-linejoin:round;stroke-dasharray:1.041876e-02,4.1675"/><path d="M230.9 36.9h0" class="st1"/><path d="M256.1 72c-3.6 0-7.1 1-10.1 2.9-.4.2-.5.7-.2 1.1.2.4.7.5 1.1.2 2.5-1.6 5.4-2.5 8.4-2.7v5.3c-10 .6-14.7 13.2-7.5 20.1 3.5 3.6 9.8 4.6 14.2 1.9.4-.2.5-.7.3-1.1-.2-.4-.7-.5-1.1-.3-3.6 2.2-8.7 1.7-11.7-1.1l3.8-3.8c3.1 2.4 7.9-.1 7.8-4 0-2.7-2.2-4.9-4.9-4.9-1 0-1 1.6 0 1.6 1.8 0 3.3 1.5 3.3 3.3-.1 4.4-6.5 4.4-6.7 0 0-.4-.4-.8-.8-.8-1.6.2-.4 2.9.1 3.7l-3.8 3.8c-5.7-6.4-.9-17 7.8-16.8.4 0 .8-.4.8-.8v-6c8.8.4 15.8 7.5 16.2 16.2h-5.3c-.3-3.9-2.4-7.5-5.8-9.4-.4-.2-.9-.1-1.1.3-.2.4-.1.9.3 1.1 3.1 1.8 5.1 5.2 5.1 8.8 0 1.8-.5 3.6-1.4 5.1-.2.4-.1.9.3 1.1 1.7.8 2.5-4.2 2.6-5.4h5.3c-1.8 22.1-33.3 21.4-34.1-.8 0-2.3.4-4.5 1.3-6.6.4-1-1.1-1.6-1.5-.6-5.2 11.9 4.2 26.1 17.3 25.9 24.7-.9 24.7-36.3 0-37.3zm0-78.8c-3.6 0-7.1 1-10.1 2.9-.4.2-.5.7-.2 1.1.2.4.7.5 1.1.2 2.5-1.6 5.4-2.5 8.4-2.7V0c-10 .6-14.7 13.2-7.5 20.1 3.5 3.6 9.8 4.6 14.2 1.9.4-.2.5-.7.3-1.1-.2-.4-.7-.5-1.1-.3-3.6 2.2-8.7 1.7-11.7-1.1l3.8-3.8c3.1 2.4 7.9-.1 7.8-4 0-2.7-2.2-4.9-4.9-4.9-1 0-1 1.6 0 1.6 1.8 0 3.3 1.5 3.3 3.3-.1 4.4-6.5 4.4-6.7 0 0-.4-.4-.8-.8-.8-1.6.2-.4 2.9.1 3.7l-3.8 3.8c-5.7-6.4-.9-17 7.8-16.8.4 0 .8-.4.8-.8v-6c8.8.4 15.8 7.5 16.2 16.2h-5.3c-.3-3.9-2.4-7.5-5.8-9.4-.4-.2-.9-.1-1.1.3-.2.4-.1.9.3 1.1 3.1 1.8 5.1 5.2 5.1 8.8 0 1.8-.5 3.6-1.4 5.1-.2.4-.1.9.3 1.1 1.7.8 2.5-4.2 2.6-5.4h5.3c-1.8 22.1-33.3 21.4-34.1-.8 0-2.3.4-4.5 1.3-6.6.4-1-1.1-1.6-1.5-.6-5.2 11.9 4.2 26.1 17.3 25.9 24.7-.9 24.7-36.3 0-37.3zM82.4 150.8c-3.6 0-7.1 1-10.1 2.9-.4.2-.5.7-.2 1.1.2.4.7.5 1.1.2 2.5-1.6 5.4-2.5 8.4-2.7v5.3c-10 .6-14.7 13.2-7.5 20.1 3.5 3.6 9.8 4.6 14.2 1.9.4-.2.5-.7.3-1.1-.2-.4-.7-.5-1.1-.3-3.6 2.2-8.7 1.7-11.7-1.1l3.8-3.8c3.1 2.4 7.9-.1 7.8-4 0-2.7-2.2-4.9-4.9-4.9-1 0-1 1.6 0 1.6 1.8 0 3.3 1.5 3.3 3.3-.1 4.4-6.5 4.4-6.7 0 0-.4-.4-.8-.8-.8-1.6.2-.4 2.9.1 3.7l-3.8 3.8c-5.7-6.4-.9-17 7.8-16.8.4 0 .8-.4.8-.8v-6c8.8.4 15.8 7.5 16.2 16.2h-5.3c-.3-3.9-2.4-7.5-5.8-9.4-.4-.2-.9-.1-1.1.3-.2.4-.1.9.3 1.1 3.1 1.8 5.1 5.2 5.1 8.8 0 1.8-.5 3.6-1.4 5.1-.2.4-.1.9.3 1.1 1.7.8 2.5-4.2 2.6-5.4h5.3c-1.8 22.1-33.3 21.4-34.1-.8 0-2.3.4-4.5 1.3-6.6.4-1-1.1-1.6-1.5-.6-5.2 11.9 4.2 26.1 17.3 25.9 24.8-.9 24.8-36.3 0-37.3zm86.8-118.2c-3.6 0-7.1 1-10.1 2.9-.4.2-.5.7-.2 1.1.2.4.7.5 1.1.2 2.5-1.6 5.4-2.5 8.4-2.7v5.3c-10 .6-14.7 13.2-7.5 20.1 3.5 3.6 9.8 4.6 14.2 1.9.4-.2.5-.7.3-1.1-.2-.4-.7-.5-1.1-.3-3.6 2.2-8.7 1.7-11.7-1.1l3.8-3.8c3.1 2.4 7.9-.1 7.8-4 0-2.7-2.2-4.9-4.9-4.9-1 0-1 1.6 0 1.6 1.8 0 3.3 1.5 3.3 3.3-.1 4.4-6.5 4.4-6.7 0 0-.4-.4-.8-.8-.8-1.6.2-.4 2.9.1 3.7l-3.8 3.8c-5.7-6.4-.9-17 7.8-16.8.4 0 .8-.4.8-.8v-6c8.8.4 15.8 7.5 16.2 16.2H181c-.3-3.9-2.4-7.5-5.8-9.4-.4-.2-.9-.1-1.1.3-.2.4-.1.9.3 1.1 3.1 1.8 5.1 5.2 5.1 8.8 0 1.8-.5 3.6-1.4 5.1-.2.4-.1.9.3 1.1 1.7.8 2.5-4.2 2.6-5.4h5.3c-1.8 22.1-33.3 21.4-34.1-.8 0-2.3.4-4.5 1.3-6.6.4-1-1.1-1.6-1.5-.6-5.2 11.9 4.2 26.1 17.3 25.9 24.7-.9 24.7-36.3-.1-37.3zm0 78.8c-3.6 0-7.1 1-10.1 2.9-.4.2-.5.7-.2 1.1.2.4.7.5 1.1.2 2.5-1.6 5.4-2.5 8.4-2.7v5.3c-10 .6-14.7 13.2-7.5 20.1 3.5 3.6 9.8 4.6 14.2 1.9.4-.2.5-.7.3-1.1-.2-.4-.7-.5-1.1-.3-3.6 2.2-8.7 1.7-11.7-1.1l3.8-3.8c3.1 2.4 7.9-.1 7.8-4 0-2.7-2.2-4.9-4.9-4.9-1 0-1 1.6 0 1.6 1.8 0 3.3 1.5 3.3 3.3-.1 4.4-6.5 4.4-6.7 0 0-.4-.4-.8-.8-.8-1.6.2-.4 2.9.1 3.7l-3.8 3.8c-5.7-6.4-.9-17 7.8-16.8.4 0 .8-.4.8-.8v-6c8.8.4 15.8 7.5 16.2 16.2h-5.3c-.3-3.9-2.4-7.5-5.8-9.4-.4-.2-.9-.1-1.1.3-.2.4-.1.9.3 1.1 3.1 1.8 5.1 5.2 5.1 8.8 0 1.8-.5 3.6-1.4 5.1-.2.4-.1.9.3 1.1 1.7.8 2.5-4.2 2.6-5.4h5.3c-1.8 22.1-33.3 21.4-34.1-.8 0-2.3.4-4.5 1.3-6.6.4-1-1.1-1.6-1.5-.6-5.2 11.9 4.2 26.1 17.3 25.9 24.8-.9 24.8-36.3 0-37.3z"/><path d="M256 30.6h0" class="st1"/><path d="M256 34.8V41" class="st42"/><path d="M256 43.1h0m0 16.4h0" class="st1"/><path d="M256 63.6v6.3" class="st42"/><path d="M256 72h0m0 37.4h0" class="st1"/><path d="M256 113.6v6.3" class="st43"/><path d="M256 122h0m-18.6-31.3h0" class="st1"/><path d="M234.1 90.7h-5" style="fill:none;stroke:#000;stroke-width:2;stroke-linecap:round;stroke-linejoin:round;stroke-dasharray:0,3.2964"/><path d="M227.4 90.7h0m47.3 0h0" class="st1"/><path d="M278.8 90.7h10.4" class="st45"/><path d="M291.2 90.7h0m-48.4 13.2h0" class="st1"/><path d="m239.9 106.8-21.8 21.8" style="fill:none;stroke:#000;stroke-width:2;stroke-linecap:round;stroke-linejoin:round;stroke-dasharray:1.026814e-02,4.1073"/><path d="M216.6 130.1h0" class="st1"/><path d="M43.3 11.1h-3.6V7.5c0-.4-.3-.8-.8-.8s-.8.3-.8.8v3.6h-3.6c-.4 0-.8.3-.8.8 0 .4.3.8.8.8h3.6v3.6c0 .4.3.8.8.8s.8-.3.8-.8v-3.6h3.6c.4 0 .8-.3.8-.8 0-.4-.4-.8-.8-.8zm0 78.8h-3.6v-3.6c0-.4-.3-.8-.8-.8s-.8.3-.8.8v3.6h-3.6c-.4 0-.8.3-.8.8 0 .4.3.8.8.8h3.6v3.6c0 .4.3.8.8.8s.8-.3.8-.8v-3.6h3.6c.4 0 .8-.3.8-.8 0-.4-.4-.8-.8-.8z" class="st11"/><path d="M173.6 11.1H170V7.5c0-.4-.3-.8-.8-.8-.4 0-.8.3-.8.8v3.6h-3.6c-.4 0-.8.3-.8.8 0 .4.3.8.8.8h3.6v3.6c0 .4.3.8.8.8.4 0 .8-.3.8-.8v-3.6h3.6c.4 0 .8-.3.8-.8 0-.4-.4-.8-.8-.8z" class="st47"/><path d="M303.8 11.1h-3.6V7.5c0-.4-.3-.8-.8-.8-.4 0-.8.3-.8.8v3.6H295c-.4 0-.8.3-.8.8 0 .4.3.8.8.8h3.6v3.6c0 .4.3.8.8.8.4 0 .8-.3.8-.8v-3.6h3.6c.4 0 .8-.3.8-.8 0-.4-.4-.8-.8-.8zm0 78.8h-3.6v-3.6c0-.4-.3-.8-.8-.8-.4 0-.8.3-.8.8v3.6H295c-.4 0-.8.3-.8.8 0 .4.3.8.8.8h3.6v3.6c0 .4.3.8.8.8.4 0 .8-.3.8-.8v-3.6h3.6c.4 0 .8-.3.8-.8 0-.4-.4-.8-.8-.8z" class="st11"/><path d="M260.4 129.3h-3.6v-3.6c0-.4-.3-.8-.8-.8s-.8.3-.8.8v3.6h-3.6c-.4 0-.8.3-.8.8 0 .4.3.8.8.8h3.6v3.6c0 .4.3.8.8.8s.8-.3.8-.8v-3.6h3.6c.4 0 .8-.3.8-.8 0-.4-.4-.8-.8-.8z" class="st47"/><path d="M351 51.3h0" class="st1"/><path d="M355 51.3h130.5" style="fill:none;stroke:#000;stroke-width:2;stroke-linecap:round;stroke-linejoin:round;stroke-dasharray:1.001359e-02,4.0054"/><path d="M487.5 51.3h0" class="st1"/><path d="M260.4 50.5h-3.6v-3.6c0-.4-.3-.8-.8-.8s-.8.3-.8.8v3.6h-3.6c-.4 0-.8.3-.8.8s.3.8.8.8h3.6v3.6c0 .4.3.8.8.8s.8-.3.8-.8v-3.6h3.6c.4 0 .8-.3.8-.8s-.4-.8-.8-.8z" class="st11"/><path d="M169.2 177.7h0" class="st1"/><path d="M169.2 181.8v6.3" class="st13"/><path d="M169.2 190.2h0m0-41.4h0" class="st1"/><path d="M169.2 152.9v6.3" style="fill:none;stroke:#000;stroke-width:2;stroke-linecap:round;stroke-linejoin:round;stroke-dasharray:1.042066e-02,4.1683"/><path d="M169.2 161.3h0m13.2-18h0" class="st1"/><path d="m185 145.9 6.5 6.5" style="fill:none;stroke:#000;stroke-width:2;stroke-linecap:round;stroke-linejoin:round;stroke-dasharray:0,3.658"/><path d="M192.8 153.7h0" class="st1"/><path d="M229.2 16.3H196V6h33.2v10.3z"/><path d="M229.2 5.2H196c-.4 0-.8.4-.8.8v10.2c0 .4.4.8.8.8h33.2c.4 0 .8-.4.8-.8V6c0-.4-.4-.8-.8-.8zm-.8 10.2h-31.6V6.8h31.6v8.6z" class="st11"/><path d="M200.5 11.7c.7.8 1.9-.4 1.1-1.1-.7-.8-1.9.3-1.1 1.1zm3.8 0c.7.8 1.9-.4 1.1-1.1-.7-.8-1.8.3-1.1 1.1zm3.9 0c.7.8 1.9-.4 1.1-1.1-.7-.8-1.9.3-1.1 1.1zm3.8 0c.7.8 1.9-.4 1.1-1.1-.7-.8-1.8.3-1.1 1.1zm3.8 0c.7.8 1.9-.4 1.1-1.1-.7-.8-1.8.3-1.1 1.1zm3.9 0c.7.8 1.9-.4 1.1-1.1-.7-.8-1.9.3-1.1 1.1zm3.8 0c.7.8 1.9-.4 1.1-1.1-.7-.8-1.8.3-1.1 1.1z" class="st11"/><path d="M12.7 174.7h-33.2v-10.3h33.2v10.3z"/><path d="M12.7 163.6h-33.2c-.4 0-.8.4-.8.8v10.2c0 .4.4.8.8.8h33.2c.4 0 .8-.4.8-.8v-10.2c0-.5-.4-.8-.8-.8zm-.8 10.2h-31.6v-8.6h31.6v8.6z" class="st11"/><path d="M-.7 170.1c.7.8 1.9-.4 1.1-1.1-.7-.8-1.8.3-1.1 1.1zm3.8 0c.7.8 1.9-.4 1.1-1.1-.7-.8-1.8.3-1.1 1.1zm3.9 0c.7.8 1.9-.4 1.1-1.1-.7-.8-1.9.3-1.1 1.1z" class="st11"/><path d="M142.4 95.9h-33.2V85.6h33.2v10.3z"/><path d="M142.4 84.8h-33.2c-.4 0-.8.4-.8.8v10.2c0 .4.4.8.8.8h33.2c.4 0 .8-.4.8-.8V85.6c0-.4-.4-.8-.8-.8zm-.8 10.2H110v-8.6h31.6V95zm-21-16.3c1.4 0 2.7-.9 3.1-2.2.1-.2.2-.3.5-.3h2.8c.3 0 .5.2.5.5V78c0 .4.4.8.8.8s.8-.4.8-.8v-1.3c0-.3.2-.5.5-.5s.5.2.5.5V78c0 .4.4.8.8.8s.8-.4.8-.8v-1.3c0-.3.2-.5.5-.5h.5v.5c0 1 1.6 1 1.6 0 0-.7.3-2.1-.8-2.1h-9.2c-.2 0-.4-.1-.5-.3-1.2-3.4-6.4-2.7-6.5 1.1 0 1.8 1.5 3.3 3.3 3.3zm0-5.1c2.3 0 2.3 3.5 0 3.5s-2.3-3.4 0-3.5z" class="st11"/><path d="M113.7 91.3c.7.8 1.9-.4 1.1-1.1-.7-.8-1.9.3-1.1 1.1zm3.8 0c.7.8 1.9-.4 1.1-1.1-.7-.8-1.8.3-1.1 1.1zm3.9 0c.7.8 1.9-.4 1.1-1.1-.7-.8-1.9.3-1.1 1.1zm3.8 0c.7.8 1.9-.4 1.1-1.1-.7-.8-1.8.3-1.1 1.1zm3.8 0c.7.8 1.9-.4 1.1-1.1-.7-.8-1.8.3-1.1 1.1zm3.9 0c.7.8 1.9-.4 1.1-1.1-.7-.8-1.9.3-1.1 1.1zm3.8 0c.7.8 1.9-.4 1.1-1.1-.7-.8-1.8.3-1.1 1.1z" class="st11"/><path d="M14.2 208.9h0" class="st1"/><path d="M18.3 208.9h6.1" style="fill:none;stroke:#000;stroke-width:2;stroke-linecap:round;stroke-linejoin:round;stroke-dasharray:1.013562e-02,4.0542"/><path d="M26.4 208.9h0" class="st1"/><path d="M37.2 248.3c0-2.8-2.3-5.1-5.1-5.1s-5.1 2.3-5.1 5.1 2.3 5.1 5.1 5.1 5.1-2.3 5.1-5.1zm-5.1 3.6c-2 0-3.6-1.6-3.6-3.6s1.6-3.6 3.6-3.6 3.6 1.6 3.6 3.6-1.6 3.6-3.6 3.6zm6.2 4.9c-2.8 0-5.1 2.3-5.1 5.1s2.3 5.1 5.1 5.1 5.1-2.3 5.1-5.1-2.3-5.1-5.1-5.1zm0 8.7c-2 0-3.6-1.6-3.6-3.6s1.6-3.6 3.6-3.6 3.6 1.6 3.6 3.6-1.6 3.6-3.6 3.6zm17.5-17.2c0-2.8-2.3-5.1-5.1-5.1s-5.1 2.3-5.1 5.1 2.3 5.1 5.1 5.1 5.1-2.3 5.1-5.1zm-5.1 3.6c-2 0-3.6-1.6-3.6-3.6s1.6-3.6 3.6-3.6 3.6 1.6 3.6 3.6-1.6 3.6-3.6 3.6zm-27.9-8.7c-.4 0-.8.3-.8.8v8.7c0 .4.3.8.8.8s.8-.3.8-.8V244c0-.5-.4-.8-.8-.8zm0 13.6c-.4 0-.8.3-.8.8v8.7c0 .4.3.8.8.8s.8-.3.8-.8v-8.7c0-.4-.4-.8-.8-.8zm6.2 0c-.4 0-.8.3-.8.8v8.7c0 .4.3.8.8.8.4 0 .8-.3.8-.8v-8.7c0-.4-.4-.8-.8-.8zm18.6 0c-.4 0-.8.3-.8.8v8.7c0 .4.3.8.8.8s.8-.3.8-.8v-8.7c0-.4-.4-.8-.8-.8zm6.2 0c-.4 0-.8.3-.8.8v8.7c0 .4.3.8.8.8s.8-.3.8-.8v-8.7c0-.4-.3-.8-.8-.8zm-12.4-3.4c.4 0 .8-.3.8-.8v-8.7c0-.4-.3-.8-.8-.8s-.8.3-.8.8v8.7c0 .5.4.8.8.8z" class="st11"/><path d="M21.5 287.7h0" class="st1"/><path d="M17.8 287.7H16" style="fill:none;stroke:#000;stroke-width:2;stroke-linecap:round;stroke-linejoin:round;stroke-dasharray:0,3.6925"/><path d="M14.1 287.7h0m5.3-24h0" class="st1"/><path d="m16.7 266.4-6.7 6.7" class="st53"/><path d="M8.7 274.5h0m23.4-106.6h0" class="st1"/><path d="m29.2 164.8-19-19.9" style="fill:none;stroke:#000;stroke-width:2;stroke-linecap:round;stroke-linejoin:round;stroke-dasharray:1.056367e-02,4.2255"/><path d="M8.7 143.3h0m73.7 44.9h0" class="st1"/><path d="M82.4 192.3v35.3" style="fill:none;stroke:#000;stroke-width:2;stroke-linecap:round;stroke-linejoin:round;stroke-dasharray:1.033710e-02,4.1348"/><path d="M82.4 229.6h0m0 37.3h0" class="st1"/><path d="M82.4 271v26.8" style="fill:none;stroke:#000;stroke-width:2;stroke-linecap:round;stroke-linejoin:round;stroke-dasharray:1.024743e-02,4.099"/><path d="M82.4 299.8h0m-18.7-51.5h0" class="st1"/><path d="M60.8 248.3h-1.4" class="st57"/><path d="M57.9 248.3h0m43.1 0h0" class="st1"/><path d="M105.1 248.3h10.4" style="fill:none;stroke:#000;stroke-width:2;stroke-linecap:round;stroke-linejoin:round;stroke-dasharray:1.033825e-02,4.1353"/><path d="M117.6 248.3h0" class="st1"/><path d="M173.5 247.9h-3.6v-3.6c0-.4-.3-.8-.8-.8-.4 0-.8.3-.8.8v3.6h-3.6c-.4 0-.8.3-.8.8s.3.8.8.8h3.6v3.6c0 .4.3.8.8.8.4 0 .8-.3.8-.8v-3.6h3.6c.4 0 .8-.3.8-.8s-.4-.8-.8-.8z" class="st47"/><path d="M434 247.5h-3.6v-3.6c0-.4-.3-.8-.8-.8-.4 0-.8.3-.8.8v3.6h-3.6c-.4 0-.8.3-.8.8 0 .4.3.8.8.8h3.6v3.6c0 .4.3.8.8.8.4 0 .8-.3.8-.8v-3.6h3.6c.4 0 .8-.3.8-.8 0-.4-.3-.8-.8-.8zm132 .4h-3.6v-3.6c0-.4-.3-.8-.8-.8-.4 0-.8.3-.8.8v3.6h-3.6c-.4 0-.8.3-.8.8s.3.8.8.8h3.6v3.6c0 .4.3.8.8.8.4 0 .8-.3.8-.8v-3.6h3.6c.4 0 .8-.3.8-.8s-.3-.8-.8-.8z" class="st11"/><path d="M63.6 169.5h0" class="st1"/><path d="M59.5 169.5H49.2" class="st24"/><path d="M47.1 169.5h0m22 13.2h0" class="st1"/><path d="m66.1 185.7-10.5 10.5" style="fill:none;stroke:#000;stroke-width:2;stroke-linecap:round;stroke-linejoin:round;stroke-dasharray:1.059839e-02,4.2394"/><path d="M54.1 197.7h0m41.5-14.9h0" class="st1"/><path d="m98.4 185.6 12.8 12.8" style="fill:none;stroke:#000;stroke-width:2;stroke-linecap:round;stroke-linejoin:round;stroke-dasharray:1.000502e-02,4.002"/><path d="M112.6 199.8h0m56.5 27.7h0" class="st1"/><path d="M169.1 231.8v6.5" style="fill:none;stroke:#000;stroke-width:2;stroke-linecap:round;stroke-linejoin:round;stroke-dasharray:1.075775e-02,4.3031"/><path d="M169.1 240.5h0" class="st1"/><path d="M150.5 208.9h-9.2" style="fill:none;stroke:#000;stroke-width:2;stroke-linecap:round;stroke-linejoin:round;stroke-miterlimit:10;stroke-dasharray:1.000000e-02,4"/><path d="M156.1 222h0" class="st1"/><path d="m153.2 225.1-18.7 19.5" style="fill:none;stroke:#000;stroke-width:2;stroke-linecap:round;stroke-linejoin:round;stroke-dasharray:1.039860e-02,4.1594"/><path d="M133 246.1h0" class="st1"/><path d="M114.3 119.9H137v22h-22.7z"/><path d="M142.4 113.6h-33.2c-.4 0-.8.4-.8.8v33.2c0 .4.4.8.8.8h33.2c.4 0 .8-.4.8-.8v-33.2c0-.4-.4-.8-.8-.8zm-.8 33.3H110v-31.6h31.6v31.6z" class="st11"/><path d="M114.3 121.6c.4 0 .8-.4.8-.8v-.5h21.4v21.4h-21.4v-.5c0-1-1.6-1-1.6 0v1.3c0 .4.4.8.8.8h23c.4 0 .8-.4.8-.8v-23c0-.4-.4-.8-.8-.8h-23c-.4 0-.8.4-.8.8v1.3c0 .5.3.8.8.8z" class="st11"/><path d="M113 129.3h2.6c.4 0 .8-.4.8-.8v-5.1c0-.4-.4-.8-.8-.8H113c-.4 0-.8.4-.8.8v5.1c0 .4.3.8.8.8zm.8-5.1h1v3.5h-1v-3.5zm-.8 15.3h2.6c.4 0 .8-.4.8-.8v-5.1c0-.4-.4-.8-.8-.8H113c-.4 0-.8.4-.8.8v5.1c0 .5.3.8.8.8zm.8-5.1h1v3.5h-1v-3.5zm8.8 2.3c.3.3.8.3 1.1 0l1.9-1.9c1.5 1.1 3.8 1.1 5.3 0l1.9 1.9c.7.7 1.9-.4 1.1-1.1l-1.9-1.9c1.1-1.5 1.1-3.8 0-5.3l1.9-1.9c.7-.7-.4-1.9-1.1-1.1l-1.9 1.9c-1.5-1.1-3.8-1.1-5.3 0l-1.9-1.9c-.7-.7-1.9.4-1.1 1.1l1.9 1.9c-1.1 1.5-1.1 3.8 0 5.3l-1.9 1.9c-.3.3-.3.8 0 1.1zm8.7-5.6c-.1 4-6 4-6.1 0 .2-4 6-4 6.1 0z" class="st11"/><circle cx="128.3" cy="131.1" r=".8" class="st11"/><path d="M27.4 286.9h22.7v22H27.4z"/><path d="M55.5 280.7H22.3c-.4 0-.8.4-.8.8v33.2c0 .4.4.8.8.8h33.2c.4 0 .8-.4.8-.8v-33.2c0-.5-.3-.8-.8-.8zm-.8 33.2H23.1v-31.6h31.6v31.6z" class="st11"/><path d="M27.4 288.6c.4 0 .8-.4.8-.8v-.5h21.4v21.4H28.2v-.5c0-1-1.6-1-1.6 0v1.3c0 .4.4.8.8.8h23c.4 0 .8-.4.8-.8v-23c0-.4-.4-.8-.8-.8h-23c-.4 0-.8.4-.8.8v1.3c0 .5.4.8.8.8z" class="st11"/><path d="M26.2 296.3h2.6c.4 0 .8-.4.8-.8v-5.1c0-.4-.4-.8-.8-.8h-2.6c-.4 0-.8.4-.8.8v5.1c0 .4.3.8.8.8zm.8-5.1h1v3.5h-1v-3.5zm-.8 15.3h2.6c.4 0 .8-.4.8-.8v-5.1c0-.4-.4-.8-.8-.8h-2.6c-.4 0-.8.4-.8.8v5.1c0 .5.3.8.8.8zm.8-5.1h1v3.5h-1v-3.5zm8.8 2.3c.3.3.8.3 1.1 0l1.9-1.9c1.5 1.1 3.8 1.1 5.3 0l1.9 1.9c.7.7 1.9-.4 1.1-1.1l-1.9-1.9c1.1-1.5 1.1-3.8 0-5.3l1.9-1.9c.7-.7-.4-1.9-1.1-1.1l-1.9 1.9c-1.5-1.1-3.8-1.1-5.3 0l-1.9-1.9c-.7-.7-1.9.4-1.1 1.1l1.9 1.9c-1.1 1.5-1.1 3.8 0 5.3l-1.9 1.9c-.3.3-.3.8 0 1.1zm8.7-5.6c-.1 4-6 4-6.1 0 .2-4 6-4 6.1 0z" class="st11"/><circle cx="41.5" cy="298.1" r=".8" class="st11"/><path d="M197.7 287.7h0" class="st1"/><path d="M194.4 287.7h-5" style="fill:none;stroke:#000;stroke-width:2;stroke-linecap:round;stroke-linejoin:round;stroke-dasharray:0,3.3027"/><path d="M187.8 287.7h0m-37.3 0h0" class="st1"/><path d="M146.3 287.7h-6.2" style="fill:none;stroke:#000;stroke-width:2;stroke-linecap:round;stroke-linejoin:round;stroke-dasharray:1.031524e-02,4.1261"/><path d="M138.1 287.7h0m31-30.9h0" class="st1"/><path d="M169.1 260.9v6.1" style="fill:none;stroke:#000;stroke-width:2;stroke-linecap:round;stroke-linejoin:round;stroke-dasharray:1.015358e-02,4.0614"/><path d="M169.1 269h0" class="st1"/><path d="M-4.4 190.2c-3.6 0-7.1 1-10.1 2.9-.4.2-.5.7-.2 1.1.2.4.7.5 1.1.2 2.5-1.6 5.4-2.5 8.4-2.7v5.3c-10 .6-14.7 13.2-7.5 20.1 3.5 3.6 9.8 4.6 14.2 1.9.4-.2.5-.7.3-1.1-.2-.4-.7-.5-1.1-.3-3.6 2.2-8.7 1.7-11.7-1.1l3.8-3.8c3.1 2.4 7.9-.1 7.8-4 0-2.7-2.2-4.9-4.9-4.9-1 0-1 1.6 0 1.6 1.8 0 3.3 1.5 3.3 3.3-.1 4.4-6.5 4.4-6.7 0 0-.4-.4-.8-.8-.8-1.6.2-.4 2.9.1 3.7l-3.8 3.8c-5.7-6.4-.9-17 7.8-16.8.4 0 .8-.4.8-.8v-6c8.8.4 15.8 7.5 16.2 16.2H7.3c-.3-3.9-2.4-7.5-5.8-9.4-.4-.2-.9-.1-1.1.3-.2.4-.1.9.3 1.1 3.1 1.8 5.1 5.2 5.1 8.8 0 1.8-.5 3.6-1.4 5.1-.2.4-.1.9.3 1.1 1.7.8 2.5-4.2 2.6-5.4h5.3c-1.8 22.1-33.3 21.4-34.1-.8 0-2.3.4-4.5 1.3-6.6.4-1-1.1-1.6-1.5-.6-5.2 11.9 4.2 26.1 17.3 25.9 24.8-1 24.8-36.3 0-37.3zm-.1 78.8c-3.6 0-7.1 1-10.1 2.9-.4.2-.5.7-.2 1.1.2.4.7.5 1.1.2 2.5-1.6 5.4-2.5 8.4-2.7v5.3c-10 .6-14.7 13.2-7.5 20.1 3.5 3.6 9.8 4.6 14.2 1.9.4-.2.5-.7.3-1.1-.2-.4-.7-.5-1.1-.3-3.6 2.2-8.7 1.7-11.7-1.1l3.8-3.8c3.1 2.4 7.9-.1 7.8-4 0-2.7-2.2-4.9-4.9-4.9-1 0-1 1.6 0 1.6 1.8 0 3.3 1.5 3.3 3.3-.1 4.4-6.5 4.4-6.7 0 0-.4-.4-.8-.8-.8-1.6.2-.4 2.9.1 3.7l-3.8 3.8c-5.7-6.4-.9-17 7.8-16.8.4 0 .8-.4.8-.8v-6c8.8.4 15.8 7.5 16.2 16.2H7.3c-.3-3.9-2.4-7.5-5.8-9.4-.4-.2-.9-.1-1.1.3-.2.4-.1.9.3 1.1 3.1 1.8 5.1 5.2 5.1 8.8 0 1.8-.5 3.6-1.4 5.1-.2.4-.1.9.3 1.1 1.7.8 2.5-4.2 2.6-5.4h5.3c-1.8 22.1-33.3 21.4-34.1-.8 0-2.3.4-4.5 1.3-6.6.4-1-1.1-1.6-1.5-.6-5.2 11.9 4.2 26.1 17.3 25.9 24.7-1 24.7-36.3-.1-37.3zm86.9-39.4c-3.6 0-7.1 1-10.1 2.9-.4.2-.5.7-.2 1.1.2.4.7.5 1.1.2 2.5-1.6 5.4-2.5 8.4-2.7v5.3c-10 .6-14.7 13.2-7.5 20.1 3.5 3.6 9.8 4.6 14.2 1.9.4-.2.5-.7.3-1.1-.2-.4-.7-.5-1.1-.3-3.6 2.2-8.7 1.7-11.7-1.1l3.8-3.8c3.1 2.4 7.9-.1 7.8-4 0-2.7-2.2-4.9-4.9-4.9-1 0-1 1.6 0 1.6 1.8 0 3.3 1.5 3.3 3.3-.1 4.4-6.5 4.4-6.7 0 0-.4-.4-.8-.8-.8-1.6.2-.4 2.9.1 3.7l-3.8 3.8c-5.7-6.4-.9-17 7.8-16.8.4 0 .8-.4.8-.8v-6c8.8.4 15.8 7.5 16.2 16.2h-5.3c-.3-3.9-2.4-7.5-5.8-9.4-.4-.2-.9-.1-1.1.3-.2.4-.1.9.3 1.1 3.1 1.8 5.1 5.2 5.1 8.8 0 1.8-.5 3.6-1.4 5.1-.2.4-.1.9.3 1.1 1.7.8 2.5-4.2 2.6-5.4h5.3c-1.8 22.1-33.3 21.4-34.1-.8 0-2.3.4-4.5 1.3-6.6.4-1-1.1-1.6-1.5-.6-5.2 11.9 4.2 26.1 17.3 25.9 24.8-1 24.8-36.3 0-37.3z"/><path d="M237.3 169.5h0" class="st1"/><path d="M233.6 169.5h-1.8" class="st37"/><path d="M230 169.5h0m44.6 0h0" class="st1"/><path d="M278.8 169.5h10.4" style="fill:none;stroke:#000;stroke-width:2;stroke-linecap:round;stroke-linejoin:round;stroke-dasharray:1.037649e-02,4.1506"/><path d="M291.2 169.5h0" class="st1"/><path d="M256.1 229.6c-3.6 0-7.1 1-10.1 2.9-.4.2-.5.7-.2 1.1.2.4.7.5 1.1.2 2.5-1.6 5.4-2.5 8.4-2.7v5.3c-10 .6-14.7 13.2-7.5 20.1 3.5 3.6 9.8 4.6 14.2 1.9.4-.2.5-.7.3-1.1-.2-.4-.7-.5-1.1-.3-3.6 2.2-8.7 1.7-11.7-1.1l3.8-3.8c3.1 2.4 7.9-.1 7.8-4 0-2.7-2.2-4.9-4.9-4.9-1 0-1 1.6 0 1.6 1.8 0 3.3 1.5 3.3 3.3-.1 4.4-6.5 4.4-6.7 0 0-.4-.4-.8-.8-.8-1.6.2-.4 2.9.1 3.7l-3.8 3.8c-5.7-6.4-.9-17 7.8-16.8.4 0 .8-.4.8-.8v-6c8.8.4 15.8 7.5 16.2 16.2h-5.3c-.3-3.9-2.4-7.5-5.8-9.4-.4-.2-.9-.1-1.1.3-.2.4-.1.9.3 1.1 3.1 1.8 5.1 5.2 5.1 8.8 0 1.8-.5 3.6-1.4 5.1-.2.4-.1.9.3 1.1 1.7.8 2.5-4.2 2.6-5.4h5.3c-1.8 22.1-33.3 21.4-34.1-.8 0-2.3.4-4.5 1.3-6.6.4-1-1.1-1.6-1.5-.6-5.2 11.9 4.2 26.1 17.3 25.9 24.7-1 24.7-36.3 0-37.3zm0-78.8c-3.6 0-7.1 1-10.1 2.9-.4.2-.5.7-.2 1.1.2.4.7.5 1.1.2 2.5-1.6 5.4-2.5 8.4-2.7v5.3c-10 .6-14.7 13.2-7.5 20.1 3.5 3.6 9.8 4.6 14.2 1.9.4-.2.5-.7.3-1.1-.2-.4-.7-.5-1.1-.3-3.6 2.2-8.7 1.7-11.7-1.1l3.8-3.8c3.1 2.4 7.9-.1 7.8-4 0-2.7-2.2-4.9-4.9-4.9-1 0-1 1.6 0 1.6 1.8 0 3.3 1.5 3.3 3.3-.1 4.4-6.5 4.4-6.7 0 0-.4-.4-.8-.8-.8-1.6.2-.4 2.9.1 3.7l-3.8 3.8c-5.7-6.4-.9-17 7.8-16.8.4 0 .8-.4.8-.8v-6c8.8.4 15.8 7.5 16.2 16.2h-5.3c-.3-3.9-2.4-7.5-5.8-9.4-.4-.2-.9-.1-1.1.3-.2.4-.1.9.3 1.1 3.1 1.8 5.1 5.2 5.1 8.8 0 1.8-.5 3.6-1.4 5.1-.2.4-.1.9.3 1.1 1.7.8 2.5-4.2 2.6-5.4h5.3c-1.8 22.1-33.3 21.4-34.1-.8 0-2.3.4-4.5 1.3-6.6.4-1-1.1-1.6-1.5-.6-5.2 11.9 4.2 26.1 17.3 25.9 24.7-.9 24.7-36.3 0-37.3zm-86.9 39.4c-3.6 0-7.1 1-10.1 2.9-.4.2-.5.7-.2 1.1.2.4.7.5 1.1.2 2.5-1.6 5.4-2.5 8.4-2.7v5.3c-10 .6-14.7 13.2-7.5 20.1 3.5 3.6 9.8 4.6 14.2 1.9.4-.2.5-.7.3-1.1-.2-.4-.7-.5-1.1-.3-3.6 2.2-8.7 1.7-11.7-1.1l3.8-3.8c3.1 2.4 7.9-.1 7.8-4 0-2.7-2.2-4.9-4.9-4.9-1 0-1 1.6 0 1.6 1.8 0 3.3 1.5 3.3 3.3-.1 4.4-6.5 4.4-6.7 0 0-.4-.4-.8-.8-.8-1.6.2-.4 2.9.1 3.7l-3.8 3.8c-5.7-6.4-.9-17 7.8-16.8.4 0 .8-.4.8-.8v-6c8.8.4 15.8 7.5 16.2 16.2H181c-.3-3.9-2.4-7.5-5.8-9.4-.4-.2-.9-.1-1.1.3-.2.4-.1.9.3 1.1 3.1 1.8 5.1 5.2 5.1 8.8 0 1.8-.5 3.6-1.4 5.1-.2.4-.1.9.3 1.1 1.7.8 2.5-4.2 2.6-5.4h5.3c-1.8 22.1-33.3 21.4-34.1-.8 0-2.3.4-4.5 1.3-6.6.4-1-1.1-1.6-1.5-.6-5.2 11.9 4.2 26.1 17.3 25.9 24.7-1 24.7-36.3-.1-37.3zm0 78.8c-3.6 0-7.1 1-10.1 2.9-.4.2-.5.7-.2 1.1.2.4.7.5 1.1.2 2.5-1.6 5.4-2.5 8.4-2.7v5.3c-10 .6-14.7 13.2-7.5 20.1 3.5 3.6 9.8 4.6 14.2 1.9.4-.2.5-.7.3-1.1-.2-.4-.7-.5-1.1-.3-3.6 2.2-8.7 1.7-11.7-1.1l3.8-3.8c3.1 2.4 7.9-.1 7.8-4 0-2.7-2.2-4.9-4.9-4.9-1 0-1 1.6 0 1.6 1.8 0 3.3 1.5 3.3 3.3-.1 4.4-6.5 4.4-6.7 0 0-.4-.4-.8-.8-.8-1.6.2-.4 2.9.1 3.7l-3.8 3.8c-5.7-6.4-.9-17 7.8-16.8.4 0 .8-.4.8-.8v-6c8.8.4 15.8 7.5 16.2 16.2h-5.3c-.3-3.9-2.4-7.5-5.8-9.4-.4-.2-.9-.1-1.1.3-.2.4-.1.9.3 1.1 3.1 1.8 5.1 5.2 5.1 8.8 0 1.8-.5 3.6-1.4 5.1-.2.4-.1.9.3 1.1 1.7.8 2.5-4.2 2.6-5.4h5.3c-1.8 22.1-33.3 21.4-34.1-.8 0-2.3.4-4.5 1.3-6.6.4-1-1.1-1.6-1.5-.6-5.2 11.9 4.2 26.1 17.3 25.9 24.8-1 24.8-36.3 0-37.3z"/><path d="M256 188.2h0" class="st1"/><path d="M256 192.4v6.2" class="st42"/><path d="M256 200.7h0m0 16.4h0" class="st1"/><path d="M256 221.2v6.3" class="st42"/><path d="M256 229.6h0m0 37.3h0" class="st1"/><path d="M256 271.1v6.4" class="st43"/><path d="M256 279.6h0m-18.6-31.3h0" class="st1"/><path d="M233.4 248.3h-2.1" style="fill:none;stroke:#000;stroke-width:2;stroke-linecap:round;stroke-linejoin:round;stroke-dasharray:1.000881e-02,4.0035"/><path d="M229.3 248.3h0m61.7 0h0" class="st1"/><path d="M286.9 248.3h-10.2" style="fill:none;stroke:#000;stroke-width:2;stroke-linecap:round;stroke-linejoin:round;stroke-dasharray:1.018031e-02,4.0721"/><path d="M274.7 248.3h0m32.9 0h0" class="st1"/><path d="M311.6 248.3h107.9" class="st70"/><path d="M421.5 248.3h0m-178.7 13.2h0" class="st1"/><path d="m240 264-9.8 8.6" style="fill:none;stroke:#000;stroke-width:2;stroke-linecap:round;stroke-linejoin:round;stroke-dasharray:0,3.7365"/><path d="M228.8 273.9h0" class="st1"/><path d="M43.3 168.7h-3.6v-3.6c0-.4-.3-.8-.8-.8s-.8.3-.8.8v3.6h-3.6c-.4 0-.8.3-.8.8 0 .4.3.8.8.8h3.6v3.6c0 .4.3.8.8.8s.8-.3.8-.8v-3.6h3.6c.4 0 .8-.3.8-.8 0-.4-.4-.8-.8-.8z" class="st47"/><path d="M173.6 168.7H170v-3.6c0-.4-.3-.8-.8-.8-.4 0-.8.3-.8.8v3.6h-3.6c-.4 0-.8.3-.8.8 0 .4.3.8.8.8h3.6v3.6c0 .4.3.8.8.8.4 0 .8-.3.8-.8v-3.6h3.6c.4 0 .8-.3.8-.8 0-.4-.4-.8-.8-.8zm130.2 0h-3.6v-3.6c0-.4-.3-.8-.8-.8-.4 0-.8.3-.8.8v3.6H295c-.4 0-.8.3-.8.8 0 .4.3.8.8.8h3.6v3.6c0 .4.3.8.8.8.4 0 .8-.3.8-.8v-3.6h3.6c.4 0 .8-.3.8-.8 0-.4-.4-.8-.8-.8zm0 78.8h-3.6v-3.6c0-.4-.3-.8-.8-.8-.4 0-.8.3-.8.8v3.6H295c-.4 0-.8.3-.8.8 0 .4.3.8.8.8h3.6v3.6c0 .4.3.8.8.8.4 0 .8-.3.8-.8v-3.6h3.6c.4 0 .8-.3.8-.8 0-.4-.4-.8-.8-.8zm-173.7 0h-3.6v-3.6c0-.4-.3-.8-.8-.8-.4 0-.8.3-.8.8v3.6h-3.6c-.4 0-.8.3-.8.8s.3.8.8.8h3.6v3.6c0 .4.3.8.8.8.4 0 .8-.3.8-.8v-3.6h3.6c.4 0 .8-.3.8-.8s-.3-.8-.8-.8z" class="st11"/><path d="M260.4 129.3h-3.6v-3.6c0-.4-.3-.8-.8-.8s-.8.3-.8.8v3.6h-3.6c-.4 0-.8.3-.8.8 0 .4.3.8.8.8h3.6v3.6c0 .4.3.8.8.8s.8-.3.8-.8v-3.6h3.6c.4 0 .8-.3.8-.8 0-.4-.4-.8-.8-.8z" class="st47"/><path d="M86.7 129.3h-3.6v-3.6c0-.4-.3-.8-.8-.8s-.8.3-.8.8v3.6h-3.6c-.4 0-.8.3-.8.8 0 .4.3.8.8.8h3.6v3.6c0 .4.3.8.8.8s.8-.3.8-.8v-3.6h3.6c.4 0 .8-.3.8-.8 0-.4-.4-.8-.8-.8z" class="st11"/><path d="M86.7 50.5h-3.6v-3.6c0-.4-.3-.8-.8-.8s-.8.3-.8.8v3.6h-3.6c-.4 0-.8.3-.8.8s.3.8.8.8h3.6v3.6c0 .4.3.8.8.8s.8-.3.8-.8v-3.6h3.6c.4 0 .8-.3.8-.8s-.4-.8-.8-.8z" class="st47"/><path d="M347.2 129.3h-3.6v-3.6c0-.4-.3-.8-.8-.8-.4 0-.8.3-.8.8v3.6h-3.6c-.4 0-.8.3-.8.8 0 .4.3.8.8.8h3.6v3.6c0 .4.3.8.8.8.4 0 .8-.3.8-.8v-3.6h3.6c.4 0 .8-.3.8-.8 0-.4-.4-.8-.8-.8z" class="st11"/><path d="M347.2 208.1h-3.6v-3.6c0-.4-.3-.8-.8-.8-.4 0-.8.3-.8.8v3.6h-3.6c-.4 0-.8.3-.8.8 0 .4.3.8.8.8h3.6v3.6c0 .4.3.8.8.8.4 0 .8-.3.8-.8v-3.6h3.6c.4 0 .8-.3.8-.8 0-.4-.4-.8-.8-.8z" class="st47"/><path d="M500 208.1h-3.6v-3.6c0-.4-.3-.8-.8-.8-.4 0-.8.3-.8.8v3.6h-3.6c-.4 0-.8.3-.8.8 0 .4.3.8.8.8h3.6v3.6c0 .4.3.8.8.8.4 0 .8-.3.8-.8v-3.6h3.6c.4 0 .8-.3.8-.8 0-.4-.3-.8-.8-.8z" class="st11"/><path d="M260.4 286.9h-3.6v-3.6c0-.4-.3-.8-.8-.8s-.8.3-.8.8v3.6h-3.6c-.4 0-.8.3-.8.8s.3.8.8.8h3.6v3.6c0 .4.3.8.8.8s.8-.3.8-.8v-3.6h3.6c.4 0 .8-.3.8-.8s-.4-.8-.8-.8z" class="st47"/><path d="M390.6 286.9H387v-3.6c0-.4-.3-.8-.8-.8s-.8.3-.8.8v3.6h-3.6c-.4 0-.8.3-.8.8s.3.8.8.8h3.6v3.6c0 .4.3.8.8.8s.8-.3.8-.8v-3.6h3.6c.4 0 .8-.3.8-.8s-.3-.8-.8-.8z" class="st11"/><path d="M264.2 208.9h0" class="st1"/><path d="M268.1 208.9h64.6" style="fill:none;stroke:#000;stroke-width:2;stroke-linecap:round;stroke-linejoin:round;stroke-dasharray:0,3.902"/><path d="M334.6 208.9h0m-146.8 0h0" class="st1"/><path d="M191.8 208.9h54" style="fill:none;stroke:#000;stroke-width:2;stroke-linecap:round;stroke-linejoin:round;stroke-dasharray:0,3.9915"/><path d="M247.8 208.9h0" class="st1"/><path d="M260.4 208.1h-3.6v-3.6c0-.4-.3-.8-.8-.8s-.8.3-.8.8v3.6h-3.6c-.4 0-.8.3-.8.8 0 .4.3.8.8.8h3.6v3.6c0 .4.3.8.8.8s.8-.3.8-.8v-3.6h3.6c.4 0 .8-.3.8-.8 0-.4-.4-.8-.8-.8z" class="st11"/><path d="m212.6 273.4 13.8 2.9v7.5l-27.7 5.9v-13.4z"/><path d="m226.8 275.1-14.1-3h-.3l-14.1 3c-.4.1-.6.4-.6.8v16.2c0 8.2 6.7 14.9 14.9 14.9s14.9-6.7 14.9-14.9v-16.2c-.1-.4-.4-.7-.7-.8zm-14.2-1.4 13.3 2.8v7.2l-26.5 5.6v-12.8l13.2-2.8zm0 31.6c-7.3 0-13.3-5.9-13.3-13.3v-1l26.5-5.6v6.7c0 7.3-5.9 13.2-13.2 13.2zm-1.7-264c0-2.8-2.3-5.1-5.1-5.1s-5.1 2.3-5.1 5.1 2.3 5.1 5.1 5.1 5.1-2.3 5.1-5.1zm-5.2 3.6c-2 0-3.6-1.6-3.6-3.6s1.6-3.6 3.6-3.6 3.6 1.6 3.6 3.6-1.6 3.6-3.6 3.6zm6.2 5c-2.8 0-5.1 2.3-5.1 5.1s2.3 5.1 5.1 5.1 5.1-2.3 5.1-5.1c.1-2.8-2.2-5.1-5.1-5.1zm0 8.6c-2 0-3.6-1.6-3.6-3.6s1.6-3.6 3.6-3.6 3.6 1.6 3.6 3.6-1.6 3.6-3.6 3.6zm17.6-17.2c0-2.8-2.3-5.1-5.1-5.1s-5.1 2.3-5.1 5.1 2.3 5.1 5.1 5.1 5.1-2.3 5.1-5.1zm-5.2 3.6c-2 0-3.6-1.6-3.6-3.6s1.6-3.6 3.6-3.6 3.6 1.6 3.6 3.6-1.6 3.6-3.6 3.6zm-27.9-8.7c-.4 0-.8.3-.8.8v8.7c0 .4.3.8.8.8s.8-.3.8-.8V37c0-.4-.3-.8-.8-.8zm0 13.7c-.4 0-.8.3-.8.8v8.7c0 .4.3.8.8.8s.8-.3.8-.8v-8.7c0-.5-.3-.8-.8-.8zm6.2 0c-.4 0-.8.3-.8.8v8.7c0 .4.3.8.8.8s.8-.3.8-.8v-8.7c0-.5-.3-.8-.8-.8zm18.6 0c-.4 0-.8.3-.8.8v8.7c0 .4.3.8.8.8s.8-.3.8-.8v-8.7c0-.5-.3-.8-.8-.8zm6.3 0c-.4 0-.8.3-.8.8v8.7c0 .4.3.8.8.8s.8-.3.8-.8v-8.7c-.1-.5-.4-.8-.8-.8zM215 46.4c.4 0 .8-.3.8-.8V37c0-.4-.3-.8-.8-.8s-.8.3-.8.8v8.7c.1.4.4.7.8.7z" class="st11"/><path d="M114.2 283.7h23.1v22h-23.1z"/><path d="M137.2 282.3H133s-.1 0-.1-.1v-2.6c0-3.8-2.8-7.2-6.5-7.5-4.3-.4-7.9 3-7.9 7.2v3s0 .1-.1.1h-4.2c-.5 0-.9.4-.9.9v22.9c0 .5.4.9.9.9h22.9c.5 0 .9-.4.9-.9v-22.9c.1-.6-.3-1-.8-1zm-17-3c0-3.3 2.8-5.9 6.1-5.6 2.9.3 5.1 2.9 5.1 5.9v2.7s0 .1-.1.1h-11.1s-.1 0-.1-.1v-3zm-5.1 26V284s0-.1.1-.1h21.3s.1 0 .1.1v4.7s0 .1-.1.1h-10.6c-.4 0-.8.4-.8.8s.4.8.8.8h10.6s.1 0 .1.1v3.4s0 .1-.1.1h-10.6c-.4 0-.8.4-.8.8s.4.8.8.8h10.6s.1 0 .1.1v3.4s0 .1-.1.1h-10.6c-.4 0-.8.4-.8.8s.4.8.8.8h10.6s.1 0 .1.1v4.7s0 .1-.1.1l-21.4-.4z" class="st11"/><circle cx="134.3" cy="218.2" r="7.4"/><circle cx="132.3" cy="199.7" r="7.4"/><circle cx="117.2" cy="210.8" r="7.4"/><path d="M132.3 207.9c4.6 0 8.3-3.7 8.3-8.3.1-6-6.6-10.2-11.9-7.4-.2.1-.5.2-.7.4-.2.1-.4.3-.6.4-6.4 4.7-2.9 14.9 4.9 14.9zm-4-13.6c.2-.1.3-.2.5-.4l.6-.3c4.3-2.2 9.7 1.2 9.6 6 0 3.7-3 6.7-6.7 6.7-6.3 0-9.1-8.3-4-12z" class="st11"/><path d="M117.2 202.3c-1.3 0-2.5.3-3.6.8-.2.1-.5.2-.7.4-.2.1-.4.3-.6.4-6.3 4.7-2.9 14.9 5 14.9 10.9-.3 10.9-16.1-.1-16.5zm0 15c-6.3.1-9.1-8.3-4-12 .2-.1.3-.2.5-.4l.6-.3c4.3-2.2 9.7 1.2 9.6 6 0 3.7-3 6.7-6.7 6.7zm17.1-7.4c-1.3 0-2.5.3-3.6.8-.2.1-.5.2-.7.4-.2.1-.4.3-.6.4-6.3 4.7-2.9 14.9 5 14.9 10.8-.3 10.8-16.1-.1-16.5zm0 15c-6.3.1-9.1-8.3-4-12 .2-.1.3-.2.5-.4l.6-.3c4.3-2.2 9.7 1.2 9.6 6 0 3.7-3 6.7-6.7 6.7zm-6.1-24.2c.3-.3.3-.8 0-1.1-.2-.2-.6-.3-.9-.2-.1 0-.2.1-.3.2-.3.3-.3.8 0 1.1.1.1.2.1.3.2.3.1.7 0 .9-.2zm6.6 3.8c.2 0 .3-.1.5-.2.4-.3.4-.8.2-1.1-.3-.4-.8-.4-1.1-.2-.4.3-.4.8-.2 1.1.1.3.3.4.6.4zm-4.7-3.2c.4.1.9-.1 1-.5.1-.4-.1-.9-.5-1-1-.3-1.5 1.2-.5 1.5zm2.7 1.3c.2 0 .5-.1.7-.3.3-.4.2-.9-.2-1.1-.4-.2-.9-.2-1.1.2-.3.4-.2.9.2 1.1.1 0 .2.1.4.1z" class="st11"/><path d="M122.4 202.7c.2 0 .3-.1.5-.2.8-.6-.1-1.9-.9-1.3-.4.3-.4.8-.2 1.1.1.2.3.4.6.4zm-2.9 6.3c0-1-1.6-1.1-1.6 0 0 1 1.6 1 1.6 0zm.3 2.5c-.1-.4-.6-.7-1-.5-.4.1-.7.6-.5 1 .1.4.6.7 1 .5.4-.2.7-.6.5-1zm-.9-4.5c.4.2.9-.1 1-.5.1-.4-.1-.9-.5-1-.4-.1-.9.1-1 .5-.2.5.1.9.5 1zm.9 6.5c-.4.2-.4.7-.2 1.1.3.4.8.5 1.1.2.4-.3.4-.8.2-1.1-.2-.3-.7-.4-1.1-.2zm16.3-.9c-.3-.3-.8-.3-1.1 0-.1.1-.1.2-.2.3-.1.2-.1.4 0 .6 0 .1.1.2.2.3.3.3.8.3 1.1 0 .1-.1.1-.2.2-.3.1-.2.1-.4 0-.6 0-.1-.1-.2-.2-.3zm-6.8 4.4c-.4.1-.7.5-.6.9.1.4.5.7.9.6.4-.1.7-.5.6-.9 0-.4-.5-.7-.9-.6zm4.2-2.3c-.3.3-.3.8 0 1.1.3.3.8.3 1.1 0 .3-.3.3-.8 0-1.1-.3-.3-.8-.3-1.1 0zm-2 1.5c-.4.2-.5.7-.3 1.1.2.4.7.5 1.1.3.4-.2.5-.7.3-1.1-.2-.4-.7-.5-1.1-.3zm4.8-8.3c-.1 0-.2.1-.3.2-.2.2-.3.6-.2.9 0 .1.1.2.2.3.2.2.6.3.9.2.1 0 .2-.1.3-.2.1-.1.1-.2.2-.3.1-.3.1-.7-.2-.9-.1-.1-.2-.1-.3-.2-.2-.1-.4-.1-.6 0zm-11.6 8.7c-.4-.2-.9.1-1 .5-.2.4 0 .9.5 1 .4.2.9 0 1-.5.1-.3-.1-.8-.5-1z" class="st11"/><circle cx="4.6" cy="13" r="7.4"/><circle cx="2.7" cy="-5.4" r="7.4"/><path d="M2.6 2.7c4.6 0 8.3-3.7 8.3-8.3.1-6-6.6-10.2-11.9-7.4-.2.1-.5.2-.7.4-.2.1-.4.3-.6.4-6.3 4.7-2.9 15 4.9 14.9zm-4-13.6c.2-.1.3-.2.5-.4l.6-.3c4.3-2.2 9.7 1.2 9.6 6 0 3.7-3 6.7-6.7 6.7-6.3.1-9.1-8.3-4-12zm6 15.7c-1.3 0-2.5.3-3.6.8-.3.1-.5.3-.7.4-.2.1-.5.3-.7.4-6.3 4.7-2.9 14.9 5 14.9 11-.4 11-16.1 0-16.5zm0 14.9c-6.3.1-9.1-8.3-4-12 .2-.1.3-.2.5-.4l.6-.3c4.3-2.2 9.7 1.2 9.6 6 0 3.7-3 6.7-6.7 6.7z" class="st11"/><path d="M6.5 7.4c-.3-.3-.8-.3-1.1 0-.1.1-.2.2-.2.3-.1.2-.1.4 0 .6 0 .1.1.2.2.3.3.3.8.3 1.1 0 .1-.1.1-.2.2-.3.1-.2.1-.4 0-.6-.1-.1-.2-.2-.2-.3zm-6.9 4.5c-.4.1-.7.5-.6.9.1.4.5.7.9.6.4-.1.7-.5.6-.9 0-.4-.5-.7-.9-.6zm4.2-2.3c-.3.3-.3.8 0 1.1.3.3.8.3 1.1 0 .3-.3.3-.8 0-1.1-.3-.3-.8-.3-1.1 0zm-1.9 1.5c-.4.2-.5.7-.3 1.1.2.4.7.5 1.1.3.4-.2.5-.7.3-1.1-.3-.4-.7-.6-1.1-.3zm4.7-8.4c-.1 0-.2.1-.3.2-.2.2-.3.6-.2.9.1.1.1.2.2.2.2.2.6.3.9.2.1 0 .2-.1.3-.2 0 0 .1-.1.1-.2.1-.3.1-.7-.2-.9 0-.1-.1-.1-.2-.2-.2-.1-.4-.1-.6 0z" class="st11"/><circle cx="221.1" cy="100" r="7.4"/><circle cx="219.2" cy="81.5" r="7.4"/><circle cx="204" cy="92.6" r="7.4"/><path d="M219.2 89.7c4.6 0 8.3-3.7 8.3-8.3.1-6-6.6-10.2-11.9-7.4-.2.1-.5.2-.7.4-.2.1-.4.3-.6.4-6.4 4.7-3 14.9 4.9 14.9zm-4-13.6c.2-.1.3-.2.5-.4l.6-.3c4.3-2.2 9.7 1.2 9.6 6 0 3.7-3 6.7-6.7 6.7-6.4.1-9.1-8.3-4-12z" class="st11"/><path d="M204 84.1c-1.3 0-2.5.3-3.6.8-.2.1-.5.2-.7.4-.2.1-.4.3-.6.4-6.3 4.7-2.9 14.9 5 14.9 10.9-.3 10.9-16.1-.1-16.5zm0 15c-6.3.1-9.1-8.3-4-12 .2-.1.3-.2.5-.4l.6-.3c4.3-2.2 9.7 1.2 9.6 6 0 3.7-3 6.7-6.7 6.7zm17.1-7.4c-1.3 0-2.5.3-3.6.8-.2.1-.5.2-.7.4-.2.1-.4.3-.6.4-6.3 4.7-2.9 14.9 5 14.9 10.9-.3 10.9-16-.1-16.5zm0 15c-6.3.1-9.1-8.3-4-12 .2-.1.3-.2.5-.4l.6-.3c4.3-2.2 9.7 1.2 9.6 6 0 3.7-3 6.7-6.7 6.7zM215 82.5c.3-.3.3-.8 0-1.1-.2-.2-.6-.3-.9-.2-.1 0-.2.1-.3.2-.3.3-.3.8 0 1.1.1.1.2.1.3.2.3.1.7 0 .9-.2zm6.6 3.8c.2 0 .3-.1.5-.2.4-.3.4-.8.2-1.1-.3-.4-.8-.4-1.1-.2-.4.3-.4.8-.2 1.1.1.3.3.4.6.4zm-4.7-3.2c.4.1.9-.1 1-.5.1-.4-.1-.9-.5-1-1-.3-1.5 1.2-.5 1.5zm2.7 1.3c.2 0 .5-.1.7-.3.3-.4.2-.9-.2-1.1-.4-.2-.9-.2-1.1.2-.3.4-.2.9.2 1.1.1 0 .3.1.4.1z" class="st11"/><path d="M209.2 84.5c.2 0 .3-.1.5-.2.8-.6-.1-1.9-.9-1.3-.4.3-.4.8-.2 1.1.1.3.4.4.6.4zm-2.9 6.3c0-1-1.6-1.1-1.6 0 0 1 1.6 1.1 1.6 0zm.4 2.5c-.1-.4-.6-.7-1-.5-.4.1-.7.6-.5 1 .1.4.6.7 1 .5.4-.1.6-.6.5-1zm-1-4.5c.4.2.9-.1 1-.5.1-.4-.1-.9-.5-1-.4-.1-.9.1-1 .5-.1.5.1.9.5 1zm1 6.5c-.4.2-.4.7-.2 1.1.3.4.8.5 1.1.2.4-.3.4-.8.2-1.1-.3-.3-.8-.4-1.1-.2zm16.3-.9c-.3-.3-.8-.3-1.1 0-.1.1-.1.2-.2.3-.1.2-.1.4 0 .6 0 .1.1.2.2.3.3.3.8.3 1.1 0 .1-.1.1-.2.2-.3.1-.2.1-.4 0-.6-.1-.1-.2-.2-.2-.3zm-6.9 4.4c-.4.1-.7.5-.6.9.1.4.5.7.9.6.4-.1.7-.5.6-.9 0-.4-.5-.6-.9-.6zm4.2-2.2c-.3.3-.3.8 0 1.1.3.3.8.3 1.1 0 .3-.3.3-.8 0-1.1-.3-.4-.8-.4-1.1 0zm-1.9 1.4c-.4.2-.5.7-.3 1.1.2.4.7.5 1.1.3.4-.2.5-.7.3-1.1-.2-.4-.7-.5-1.1-.3zm4.7-8.3c-.1 0-.2.1-.3.2-.2.2-.3.6-.2.9 0 .1.1.2.2.3.2.2.6.3.9.2.1 0 .2-.1.3-.2.1-.1.1-.2.2-.3.1-.3.1-.7-.2-.9-.1-.1-.2-.1-.3-.2-.2-.1-.4-.1-.6 0zm-11.6 8.8c-.4-.2-.9.1-1 .5-.2.4 0 .9.5 1 .4.2.9 0 1-.5.1-.4-.1-.9-.5-1z" class="st11"/><path d="M196.4 152.9h32.4v33.3h-32.4z"/><path d="m204.2 179 8.9-8.9c.3-.3.3-.8 0-1.1l-8.9-8.9c-.8-.8-2 .3-1.1 1.1l8.4 8.4-8.4 8.4c-.9.7.2 1.9 1.1 1zm8.8-.6c0 .4.4.8.8.8h8.9c.4 0 .8-.4.8-.8s-.4-.8-.8-.8h-8.9c-.4 0-.8.3-.8.8z" class="st11"/><path d="M229.2 152.1H196c-.4 0-.8.4-.8.8v33.2c0 .4.4.8.8.8h33.2c.4 0 .8-.4.8-.8v-33.2c0-.4-.4-.8-.8-.8zm-.8 33.2h-31.6v-31.6h31.6v31.6z" class="st11"/><path d="M109.3-5.4h32.4v33.3h-32.4z"/><path d="m117.1 20.7 8.9-8.9c.3-.3.3-.8 0-1.1l-8.9-8.9c-.8-.8-2 .3-1.1 1.1l8.4 8.4-8.4 8.4c-.9.7.2 1.8 1.1 1zm8.8-.7c0 .4.4.8.8.8h8.9c.4 0 .8-.4.8-.8s-.4-.8-.8-.8h-8.9c-.4 0-.8.4-.8.8z" class="st11"/><path d="M142-6.3h-33.2c-.4 0-.8.4-.8.8v33.2c0 .4.4.8.8.8H142c.4 0 .8-.4.8-.8V-5.5c0-.4-.3-.8-.8-.8zm-.8 33.3h-31.6V-4.7h31.6V27z" class="st11"/><path d="M195.4 241.8h33.1v12.5h-33.1z"/><path d="M218.3 253.6h-22.2v-11.2h31.6v5.6c0 .4.4.8.8.8s.8-.4.8-.8v-6.4c0-.4-.4-.8-.8-.8h-33.2c-.4 0-.8.4-.8.8v12.8c0 .4.4.8.8.8h23c.4 0 .8-.4.8-.8s-.4-.8-.8-.8z" class="st11"/><path d="M200.4 247.2c-.4 0-.8.4-.8.8s.4.8.8.8h7.7c.4 0 .8-.4.8-.8s-.4-.8-.8-.8h-7.7zM230 251l-3.8-.8h-.3l-3.9.8c-.4.1-.6.4-.6.8v4.4c0 2.6 2.1 4.6 4.6 4.6s4.6-2.1 4.6-4.6v-4.4c0-.4-.3-.7-.6-.8z" class="st11"/><path d="M21.7 45.5h33.1V58H21.7z"/><path d="M44.7 57.3H22.5V46.1h31.6v5.6c0 .4.4.8.8.8s.8-.4.8-.8v-6.4c0-.4-.4-.8-.8-.8H21.7c-.4 0-.8.4-.8.8v12.8c0 .4.4.8.8.8h23c.4 0 .8-.4.8-.8 0-.5-.4-.8-.8-.8z" class="st11"/><path d="M26.8 50.9c-.4 0-.8.4-.8.8s.4.8.8.8h7.7c.4 0 .8-.4.8-.8s-.4-.8-.8-.8h-7.7zm29.5 3.8-3.8-.8h-.3l-3.8.8c-.4.1-.6.4-.6.8v4.4c0 2.6 2.1 4.6 4.6 4.6s4.6-2.1 4.6-4.6v-4.4c0-.3-.3-.7-.7-.8z" class="st11"/><path d="M27.8 192.7h22v32.8h-22z"/><path d="M50.4 191.5h-23c-.4 0-.8.4-.8.8v33.2c0 .4.4.8.8.8h23c.4 0 .8-.4.8-.8v-33.2c0-.5-.4-.8-.8-.8zm-19.2 29.4c-.2 0-.4.1-.6.2l-2.5 2.5v-22.7c.8.7 1.9 1.2 3 1.2H38v18.8h-6.8zm.4 1.6h14.7l2.2 2.2H29.3l2.3-2.2zm15.5-1.4c-.1-.1-.4-.2-.6-.2h-6.9V202h6.9c1.2 0 2.2-.4 3-1.2v22.7l-2.4-2.4zm2.5-23.7c0 1.7-1.4 3-3 3H31.2c-1.7 0-3-1.4-3-3v-4.3h21.4v4.3z" class="st11"/><path d="M36.4 198.2h5.1c1 0 1-1.6 0-1.6h-5.1c-1.1 0-1.1 1.6 0 1.6z" class="st11"/><path d="M347.2 50.5h-3.6v-3.6c0-.4-.3-.8-.8-.8-.4 0-.8.3-.8.8v3.6h-3.6c-.4 0-.8.3-.8.8s.3.8.8.8h3.6v3.6c0 .4.3.8.8.8.4 0 .8-.3.8-.8v-3.6h3.6c.4 0 .8-.3.8-.8s-.4-.8-.8-.8zm152.8 0h-3.6v-3.6c0-.4-.3-.8-.8-.8-.4 0-.8.3-.8.8v3.6h-3.6c-.4 0-.8.3-.8.8s.3.8.8.8h3.6v3.6c0 .4.3.8.8.8.4 0 .8-.3.8-.8v-3.6h3.6c.4 0 .8-.3.8-.8s-.3-.8-.8-.8z" class="st47"/></g><g style="clip-path:url(#SVGID_00000169529390609601351880000010746474372911676337_)"><path d="M1314.7 178.5c-7.3 0-13.2-5.5-13.2-12.2v-1l26.5-5.2v6.2c-.1 6.7-6 12.2-13.3 12.2z"/><path d="m1314.7 150.1 13.1 2.6v6.5l-26.2 5.2v-11.7z" class="st15"/><path d="m1328.1 151.6-13.3-2.6h-.3l-13.3 2.6c-.3.1-.6.4-.6.7v14.1c0 7.1 6.3 13 14.1 13s14.1-5.8 14.1-13v-14.1c-.1-.3-.3-.6-.7-.7zm-13.4-1.2 12.5 2.5v6.3l-25.1 4.9v-11.2l12.6-2.5zm0 27.6c-6.9 0-12.5-5.2-12.5-11.6v-1l25.1-4.9v5.9c-.1 6.4-5.7 11.6-12.6 11.6z" class="st11"/><path d="M1425.5 51.3h0" class="st1"/><path d="M1421.3 51.3H1411" style="fill:none;stroke:#000;stroke-width:2;stroke-linecap:round;stroke-linejoin:round;stroke-dasharray:1.033144e-02,4.1326"/><path d="M1408.9 51.3h0m-91 0h0" class="st1"/><path d="M1313.9 51.3h-22.5" style="fill:none;stroke:#000;stroke-width:2;stroke-linecap:round;stroke-linejoin:round;stroke-dasharray:1.020163e-02,4.0807"/><path d="M1289.3 51.3h0" class="st1"/><path d="M1225.4 209.3c0-2.8-2.3-5.1-5.1-5.1s-5.1 2.3-5.1 5.1 2.3 5.1 5.1 5.1 5.1-2.3 5.1-5.1zm-5.1 3.5c-2 0-3.6-1.6-3.6-3.6s1.6-3.6 3.6-3.6 3.6 1.6 3.6 3.6c-.1 2-1.7 3.6-3.6 3.6zm6.2 5c-2.8 0-5.1 2.3-5.1 5.1s2.3 5.1 5.1 5.1 5.1-2.3 5.1-5.1-2.3-5.1-5.1-5.1zm0 8.7c-2 0-3.6-1.6-3.6-3.6s1.6-3.6 3.6-3.6 3.6 1.6 3.6 3.6c-.1 2-1.7 3.6-3.6 3.6zm17.5-17.2c0-2.8-2.3-5.1-5.1-5.1s-5.1 2.3-5.1 5.1 2.3 5.1 5.1 5.1 5.1-2.3 5.1-5.1zm-5.1 3.5c-2 0-3.6-1.6-3.6-3.6s1.6-3.6 3.6-3.6 3.6 1.6 3.6 3.6c-.1 2-1.7 3.6-3.6 3.6zm-27.9-8.7c-.4 0-.8.3-.8.8v8.7c0 .4.3.8.8.8s.8-.3.8-.8v-8.7c-.1-.4-.4-.8-.8-.8zm0 13.7c-.4 0-.8.3-.8.8v8.7c0 .4.3.8.8.8s.8-.3.8-.8v-8.7c-.1-.5-.4-.8-.8-.8zm6.2 0c-.4 0-.8.3-.8.8v8.7c0 .4.3.8.8.8.4 0 .8-.3.8-.8v-8.7c-.1-.5-.4-.8-.8-.8zm18.6 0c-.4 0-.8.3-.8.8v8.7c0 .4.3.8.8.8.4 0 .8-.3.8-.8v-8.7c0-.5-.4-.8-.8-.8zm6.2 0c-.4 0-.8.3-.8.8v8.7c0 .4.3.8.8.8.4 0 .8-.3.8-.8v-8.7c0-.5-.4-.8-.8-.8zm-12.4-3.4c.4 0 .8-.3.8-.8v-8.7c0-.4-.3-.8-.8-.8s-.8.3-.8.8v8.7c0 .4.3.8.8.8zM1443 .8c0-2.8-2.3-5.1-5.1-5.1s-5.1 2.3-5.1 5.1 2.3 5.1 5.1 5.1 5.1-2.3 5.1-5.1zm-5.1 3.5c-2 0-3.6-1.6-3.6-3.6s1.6-3.6 3.6-3.6 3.6 1.6 3.6 3.6-1.6 3.6-3.6 3.6zm6.2 5c-2.8 0-5.1 2.3-5.1 5.1s2.3 5.1 5.1 5.1 5.1-2.3 5.1-5.1-2.3-5.1-5.1-5.1zm0 8.7c-2 0-3.6-1.6-3.6-3.6s1.6-3.6 3.6-3.6 3.6 1.6 3.6 3.6-1.6 3.6-3.6 3.6zm-15.5-22.4c-.4 0-.8.3-.8.8v8.7c0 .4.3.8.8.8.4 0 .8-.3.8-.8v-8.7c0-.4-.4-.8-.8-.8zm0 13.7c-.4 0-.8.3-.8.8v8.7c0 .4.3.8.8.8.4 0 .8-.3.8-.8v-8.7c0-.5-.4-.8-.8-.8zm6.2 0c-.4 0-.8.3-.8.8v8.7c0 .4.3.8.8.8s.8-.3.8-.8v-8.7c0-.5-.4-.8-.8-.8z" class="st11"/><path d="M1417.5 130.1h0" class="st1"/><path d="M1421.5 130.1h2" style="fill:none;stroke:#000;stroke-width:2;stroke-linecap:round;stroke-linejoin:round;stroke-dasharray:1.002884e-02,4.0115"/><path d="M1425.5 130.1h0m-68.2-99.5h0" class="st1"/><path d="M1357.3 34.7V70" style="fill:none;stroke:#000;stroke-width:2;stroke-linecap:round;stroke-linejoin:round;stroke-dasharray:1.033827e-02,4.1353"/><path d="M1357.3 72.1h0m0 66.2h0" class="st1"/><path d="M1357.3 142.4v6.3" style="fill:none;stroke:#000;stroke-width:2;stroke-linecap:round;stroke-linejoin:round;stroke-dasharray:1.043430e-02,4.1737"/><path d="M1357.3 150.8h0m0-41.4h0" class="st1"/><path d="M1357.3 113.5v6.3" class="st21"/><path d="M1357.3 121.9h0m18.6-31.2h0" class="st1"/><path d="M1379.2 90.7h5" style="fill:none;stroke:#000;stroke-width:2;stroke-linecap:round;stroke-linejoin:round;stroke-dasharray:0,3.2974"/><path d="M1385.9 90.7h0m-47.3 0h0" class="st1"/><path d="M1335.4 90.7h-1.7" style="fill:none;stroke:#000;stroke-width:2;stroke-linecap:round;stroke-linejoin:round;stroke-dasharray:0,3.2614"/><path d="M1332.1 90.7h0" class="st1"/><path d="M1005.6 89.9h3.6v-3.6c0-.4.3-.8.8-.8.4 0 .8.3.8.8v3.6h3.6c.4 0 .8.3.8.8 0 .4-.3.8-.8.8h-3.6v3.6c0 .4-.3.8-.8.8-.4 0-.8-.3-.8-.8v-3.6h-3.6c-.4 0-.8-.3-.8-.8 0-.4.4-.8.8-.8z" class="st11"/><path d="M1376 11.9h0" class="st1"/><path d="M1380.1 11.9h6.3" style="fill:none;stroke:#000;stroke-width:2;stroke-linecap:round;stroke-linejoin:round;stroke-dasharray:1.036149e-02,4.1446"/><path d="M1388.5 11.9h0m-49.8 0h0" class="st1"/><path d="M1334.5 11.9h-6.2" style="fill:none;stroke:#000;stroke-width:2;stroke-linecap:round;stroke-linejoin:round;stroke-dasharray:1.039373e-02,4.1575"/><path d="M1326.2 11.9h0m44.4 13.3h0" class="st1"/><path d="m1373.5 28.1 18.7 18.7" style="fill:none;stroke:#000;stroke-width:2;stroke-linecap:round;stroke-linejoin:round;stroke-dasharray:1.016824e-02,4.0673"/><path d="M1393.7 48.2h0m-49.5-23.1h0" class="st1"/><path d="m1341.3 28-21.9 21.8" class="st84"/><path d="M1317.9 51.3h0" class="st1"/><path d="M1289.1 51.3h9.2" class="st15"/><path d="M1251.8 51.3h0" class="st1"/><path d="M1247.4 51.3h-2.3" style="fill:none;stroke:#000;stroke-width:2;stroke-linecap:round;stroke-linejoin:round;stroke-dasharray:1.109906e-02,4.4396"/><path d="M1242.9 51.3h0m40.7 13.2h0" class="st1"/><path d="m1286.5 67.3 7.1 7.1" style="fill:none;stroke:#000;stroke-width:2;stroke-linecap:round;stroke-linejoin:round;stroke-dasharray:0,3.9967"/><path d="M1295 75.8h0m-50.5 54.3h0" class="st1"/><path d="M1248.2 130.1h1.8" style="fill:none;stroke:#000;stroke-width:2;stroke-linecap:round;stroke-linejoin:round;stroke-dasharray:0,3.6801"/><path d="M1251.9 130.1h0m37.3 0h0" class="st1"/><path d="M1293.2 130.1h54" style="fill:none;stroke:#000;stroke-width:2;stroke-linecap:round;stroke-linejoin:round;stroke-dasharray:9.981447e-03,3.9926"/><path d="M1349.2 130.1h0m-65.5 13.2h0" class="st1"/><path d="m1286.5 146.1 9.7 9.7" style="fill:none;stroke:#000;stroke-width:2;stroke-linecap:round;stroke-linejoin:round;stroke-dasharray:0,3.9172"/><path d="M1297.6 157.2h0" class="st1"/><path d="M1444.2 32.6c-3.6 0-7.1 1-10.1 2.9-.4.2-.5.7-.2 1.1.2.4.7.5 1.1.2 2.5-1.6 5.4-2.5 8.4-2.7v5.3c-10 .6-14.7 13.2-7.5 20.1 3.5 3.6 9.8 4.6 14.2 1.9.4-.2.5-.7.3-1.1-.2-.4-.7-.5-1.1-.3-3.6 2.2-8.7 1.7-11.7-1.1l3.8-3.8c3.1 2.4 7.9-.1 7.8-4 0-2.7-2.2-4.9-4.9-4.9-1 0-1 1.6 0 1.6 1.8 0 3.3 1.5 3.3 3.3-.1 4.4-6.5 4.4-6.7 0 0-.4-.4-.8-.8-.8-1.6.2-.4 2.9.1 3.7l-3.8 3.8c-5.7-6.4-.9-17 7.8-16.8.4 0 .8-.4.8-.8v-6c8.8.4 15.8 7.5 16.2 16.2h-5.3c-.3-3.9-2.4-7.5-5.8-9.4-.4-.2-.9-.1-1.1.3-.2.4-.1.9.3 1.1 3.1 1.8 5.1 5.2 5.1 8.8 0 1.8-.5 3.6-1.4 5.1-.2.4-.1.9.3 1.1 1.7.8 2.5-4.2 2.6-5.4h5.3c-1.8 22.1-33.3 21.4-34.1-.8 0-2.3.4-4.5 1.3-6.6.4-1-1.1-1.6-1.5-.6-5.2 11.9 4.2 26.1 17.3 25.9 24.8-.9 24.8-36.3 0-37.3zm0 78.8c-3.6 0-7.1 1-10.1 2.9-.4.2-.5.7-.2 1.1.2.4.7.5 1.1.2 2.5-1.6 5.4-2.5 8.4-2.7v5.3c-10 .6-14.7 13.2-7.5 20.1 3.5 3.6 9.8 4.6 14.2 1.9.4-.2.5-.7.3-1.1-.2-.4-.7-.5-1.1-.3-3.6 2.2-8.7 1.7-11.7-1.1l3.8-3.8c3.1 2.4 7.9-.1 7.8-4 0-2.7-2.2-4.9-4.9-4.9-1 0-1 1.6 0 1.6 1.8 0 3.3 1.5 3.3 3.3-.1 4.4-6.5 4.4-6.7 0 0-.4-.4-.8-.8-.8-1.6.2-.4 2.9.1 3.7l-3.8 3.8c-5.7-6.4-.9-17 7.8-16.8.4 0 .8-.4.8-.8v-6c8.8.4 15.8 7.5 16.2 16.2h-5.3c-.3-3.9-2.4-7.5-5.8-9.4-.4-.2-.9-.1-1.1.3-.2.4-.1.9.3 1.1 3.1 1.8 5.1 5.2 5.1 8.8 0 1.8-.5 3.6-1.4 5.1-.2.4-.1.9.3 1.1 1.7.8 2.5-4.2 2.6-5.4h5.3c-1.8 22.1-33.3 21.4-34.1-.8 0-2.3.4-4.5 1.3-6.6.4-1-1.1-1.6-1.5-.6-5.2 11.9 4.2 26.1 17.3 25.9 24.8-.9 24.8-36.3 0-37.3zM1357.4 72c-3.6 0-7.1 1-10.1 2.9-.4.2-.5.7-.2 1.1.2.4.7.5 1.1.2 2.5-1.6 5.4-2.5 8.4-2.7v5.3c-10 .6-14.7 13.2-7.5 20.1 3.5 3.6 9.8 4.6 14.2 1.9.4-.2.5-.7.3-1.1-.2-.4-.7-.5-1.1-.3-3.6 2.2-8.7 1.7-11.7-1.1l3.8-3.8c3.1 2.4 7.9-.1 7.8-4 0-2.7-2.2-4.9-4.9-4.9-1 0-1 1.6 0 1.6 1.8 0 3.3 1.5 3.3 3.3-.1 4.4-6.5 4.4-6.7 0 0-.4-.4-.8-.8-.8-1.6.2-.4 2.9.1 3.7l-3.8 3.8c-5.7-6.4-.9-17 7.8-16.8.4 0 .8-.4.8-.8v-6c8.8.4 15.8 7.5 16.2 16.2h-5.3c-.3-3.9-2.4-7.5-5.8-9.4-.4-.2-.9-.1-1.1.3-.2.4-.1.9.3 1.1 3.1 1.8 5.1 5.2 5.1 8.8 0 1.8-.5 3.6-1.4 5.1-.2.4-.1.9.3 1.1 1.7.8 2.5-4.2 2.6-5.4h5.3c-1.8 22.1-33.3 21.4-34.1-.8 0-2.3.4-4.5 1.3-6.6.4-1-1.1-1.6-1.5-.6-5.2 11.9 4.2 26.1 17.3 25.9 24.8-.9 24.8-36.3 0-37.3zm0-78.8c-3.6 0-7.1 1-10.1 2.9-.4.2-.5.7-.2 1.1.2.4.7.5 1.1.2 2.5-1.6 5.4-2.5 8.4-2.7V0c-10 .6-14.7 13.2-7.5 20.1 3.5 3.6 9.8 4.6 14.2 1.9.4-.2.5-.7.3-1.1-.2-.4-.7-.5-1.1-.3-3.6 2.2-8.7 1.7-11.7-1.1l3.8-3.8c3.1 2.4 7.9-.1 7.8-4 0-2.7-2.2-4.9-4.9-4.9-1 0-1 1.6 0 1.6 1.8 0 3.3 1.5 3.3 3.3-.1 4.4-6.5 4.4-6.7 0 0-.4-.4-.8-.8-.8-1.6.2-.4 2.9.1 3.7l-3.8 3.8c-5.7-6.4-.9-17 7.8-16.8.4 0 .8-.4.8-.8v-6c8.8.4 15.8 7.5 16.2 16.2h-5.3c-.3-3.9-2.4-7.5-5.8-9.4-.4-.2-.9-.1-1.1.3-.2.4-.1.9.3 1.1 3.1 1.8 5.1 5.2 5.1 8.8 0 1.8-.5 3.6-1.4 5.1-.2.4-.1.9.3 1.1 1.7.8 2.5-4.2 2.6-5.4h5.3c-1.8 22.1-33.3 21.4-34.1-.8 0-2.3.4-4.5 1.3-6.6.4-1-1.1-1.6-1.5-.6-5.2 11.9 4.2 26.1 17.3 25.9 24.7-.9 24.7-36.3 0-37.3z"/><path d="M1202.4 11.9h0" class="st1"/><path d="M1205.7 11.9h1.7" style="fill:none;stroke:#000;stroke-width:2;stroke-linecap:round;stroke-linejoin:round;stroke-dasharray:0,3.3344"/><path d="M1209 11.9h0m-43.9 0h0" class="st1"/><path d="M1161.4 11.9h-12.8" class="st38"/><path d="M1146.8 11.9h0m50.1 13.2h0" class="st1"/><path d="m1199.8 28 13 13" style="fill:none;stroke:#000;stroke-width:2;stroke-linecap:round;stroke-linejoin:round;stroke-dasharray:1.018944e-02,4.0758"/><path d="M1214.2 42.4h0" class="st1"/><path d="M1183.7 72c-3.6 0-7.1 1-10.1 2.9-.4.2-.5.7-.2 1.1.2.4.7.5 1.1.2 2.5-1.6 5.4-2.5 8.4-2.7v5.3c-10 .6-14.7 13.2-7.5 20.1 3.5 3.6 9.8 4.6 14.2 1.9.4-.2.5-.7.3-1.1-.2-.4-.7-.5-1.1-.3-3.6 2.2-8.7 1.7-11.7-1.1l3.8-3.8c3.1 2.4 7.9-.1 7.8-4 0-2.7-2.2-4.9-4.9-4.9-1 0-1 1.6 0 1.6 1.8 0 3.3 1.5 3.3 3.3-.1 4.4-6.5 4.4-6.7 0 0-.4-.4-.8-.8-.8-1.6.2-.4 2.9.1 3.7l-3.8 3.8c-5.7-6.4-.9-17 7.8-16.8.4 0 .8-.4.8-.8v-6c8.8.4 15.8 7.5 16.2 16.2h-5.3c-.3-3.9-2.4-7.5-5.8-9.4-.4-.2-.9-.1-1.1.3-.2.4-.1.9.3 1.1 3.1 1.8 5.1 5.2 5.1 8.8 0 1.8-.5 3.6-1.4 5.1-.2.4-.1.9.3 1.1 1.7.8 2.5-4.2 2.6-5.4h5.3c-1.8 22.1-33.3 21.4-34.1-.8 0-2.3.4-4.5 1.3-6.6.4-1-1.1-1.6-1.5-.6-5.2 11.9 4.2 26.1 17.3 25.9 24.8-.9 24.8-36.3 0-37.3zm0-78.8c-3.6 0-7.1 1-10.1 2.9-.4.2-.5.7-.2 1.1.2.4.7.5 1.1.2 2.5-1.6 5.4-2.5 8.4-2.7V0c-10 .6-14.7 13.2-7.5 20.1 3.5 3.6 9.8 4.6 14.2 1.9.4-.2.5-.7.3-1.1-.2-.4-.7-.5-1.1-.3-3.6 2.2-8.7 1.7-11.7-1.1l3.8-3.8c3.1 2.4 7.9-.1 7.8-4 0-2.7-2.2-4.9-4.9-4.9-1 0-1 1.6 0 1.6 1.8 0 3.3 1.5 3.3 3.3-.1 4.4-6.5 4.4-6.7 0 0-.4-.4-.8-.8-.8-1.6.2-.4 2.9.1 3.7l-3.8 3.8c-5.7-6.4-.9-17 7.8-16.8.4 0 .8-.4.8-.8v-6c8.8.4 15.8 7.5 16.2 16.2h-5.3c-.3-3.9-2.4-7.5-5.8-9.4-.4-.2-.9-.1-1.1.3-.2.4-.1.9.3 1.1 3.1 1.8 5.1 5.2 5.1 8.8 0 1.8-.5 3.6-1.4 5.1-.2.4-.1.9.3 1.1 1.7.8 2.5-4.2 2.6-5.4h5.3c-1.8 22.1-33.3 21.4-34.1-.8 0-2.3.4-4.5 1.3-6.6.4-1-1.1-1.6-1.5-.6-5.2 11.9 4.2 26.1 17.3 25.9 24.8-.9 24.8-36.3 0-37.3zm173.7 157.6c-3.6 0-7.1 1-10.1 2.9-.4.2-.5.7-.2 1.1.2.4.7.5 1.1.2 2.5-1.6 5.4-2.5 8.4-2.7v5.3c-10 .6-14.7 13.2-7.5 20.1 3.5 3.6 9.8 4.6 14.2 1.9.4-.2.5-.7.3-1.1-.2-.4-.7-.5-1.1-.3-3.6 2.2-8.7 1.7-11.7-1.1l3.8-3.8c3.1 2.4 7.9-.1 7.8-4 0-2.7-2.2-4.9-4.9-4.9-1 0-1 1.6 0 1.6 1.8 0 3.3 1.5 3.3 3.3-.1 4.4-6.5 4.4-6.7 0 0-.4-.4-.8-.8-.8-1.6.2-.4 2.9.1 3.7l-3.8 3.8c-5.7-6.4-.9-17 7.8-16.8.4 0 .8-.4.8-.8v-6c8.8.4 15.8 7.5 16.2 16.2h-5.3c-.3-3.9-2.4-7.5-5.8-9.4-.4-.2-.9-.1-1.1.3-.2.4-.1.9.3 1.1 3.1 1.8 5.1 5.2 5.1 8.8 0 1.8-.5 3.6-1.4 5.1-.2.4-.1.9.3 1.1 1.7.8 2.5-4.2 2.6-5.4h5.3c-1.8 22.1-33.3 21.4-34.1-.8 0-2.3.4-4.5 1.3-6.6.4-1-1.1-1.6-1.5-.6-5.2 11.9 4.2 26.1 17.3 25.9 24.7-.9 24.7-36.3 0-37.3zm-86.8-118.2c-3.6 0-7.1 1-10.1 2.9-.4.2-.5.7-.2 1.1.2.4.7.5 1.1.2 2.5-1.6 5.4-2.5 8.4-2.7v5.3c-10 .6-14.7 13.2-7.5 20.1 3.5 3.6 9.8 4.6 14.2 1.9.4-.2.5-.7.3-1.1-.2-.4-.7-.5-1.1-.3-3.6 2.2-8.7 1.7-11.7-1.1l3.8-3.8c3.1 2.4 7.9-.1 7.8-4 0-2.7-2.2-4.9-4.9-4.9-1 0-1 1.6 0 1.6 1.8 0 3.3 1.5 3.3 3.3-.1 4.4-6.5 4.4-6.7 0 0-.4-.4-.8-.8-.8-1.6.2-.4 2.9.1 3.7l-3.8 3.8c-5.7-6.4-.9-17 7.8-16.8.4 0 .8-.4.8-.8v-6c8.8.4 15.8 7.5 16.2 16.2h-5.3c-.3-3.9-2.4-7.5-5.8-9.4-.4-.2-.9-.1-1.1.3-.2.4-.1.9.3 1.1 3.1 1.8 5.1 5.2 5.1 8.8 0 1.8-.5 3.6-1.4 5.1-.2.4-.1.9.3 1.1 1.7.8 2.5-4.2 2.6-5.4h5.3c-1.8 22.1-33.3 21.4-34.1-.8 0-2.3.4-4.5 1.3-6.6.4-1-1.1-1.6-1.5-.6-5.2 11.9 4.2 26.1 17.3 25.9 24.8-.9 24.8-36.3 0-37.3zm0 78.8c-3.6 0-7.1 1-10.1 2.9-.4.2-.5.7-.2 1.1.2.4.7.5 1.1.2 2.5-1.6 5.4-2.5 8.4-2.7v5.3c-10 .6-14.7 13.2-7.5 20.1 3.5 3.6 9.8 4.6 14.2 1.9.4-.2.5-.7.3-1.1-.2-.4-.7-.5-1.1-.3-3.6 2.2-8.7 1.7-11.7-1.1l3.8-3.8c3.1 2.4 7.9-.1 7.8-4 0-2.7-2.2-4.9-4.9-4.9-1 0-1 1.6 0 1.6 1.8 0 3.3 1.5 3.3 3.3-.1 4.4-6.5 4.4-6.7 0 0-.4-.4-.8-.8-.8-1.6.2-.4 2.9.1 3.7l-3.8 3.8c-5.7-6.4-.9-17 7.8-16.8.4 0 .8-.4.8-.8v-6c8.8.4 15.8 7.5 16.2 16.2h-5.3c-.3-3.9-2.4-7.5-5.8-9.4-.4-.2-.9-.1-1.1.3-.2.4-.1.9.3 1.1 3.1 1.8 5.1 5.2 5.1 8.8 0 1.8-.5 3.6-1.4 5.1-.2.4-.1.9.3 1.1 1.7.8 2.5-4.2 2.6-5.4h5.3c-1.8 22.1-33.3 21.4-34.1-.8 0-2.3.4-4.5 1.3-6.6.4-1-1.1-1.6-1.5-.6-5.2 11.9 4.2 26.1 17.3 25.9 24.7-.9 24.7-36.3 0-37.3z"/><path d="M1183.6 59.5h0" class="st1"/><path d="M1183.6 63.7v6.2" class="st92"/><path d="M1183.6 72.1h0m0-41.5h0" class="st1"/><path d="M1183.6 34.8V41" class="st42"/><path d="M1183.6 43.1h0m0 66.3h0" class="st1"/><path d="M1183.6 113.5v6.3" style="fill:none;stroke:#000;stroke-width:2;stroke-linecap:round;stroke-linejoin:round;stroke-dasharray:1.045400e-02,4.1816"/><path d="M1183.6 121.9h0m18.7-31.2h0" class="st1"/><path d="M1206.3 90.7h54.1" class="st94"/><path d="M1262.4 90.7h0m-130.3 0h0" class="st1"/><path d="M1128 90.7h-107.8" class="st70"/><path d="M1018.2 90.7h0m146.8 0h0" class="st1"/><path d="M1160.9 90.7h-10.4" class="st45"/><path d="M1148.4 90.7h0m48.4 13.2h0" class="st1"/><path d="m1199.4 106.4 6.4 6.4" style="fill:none;stroke:#000;stroke-width:2;stroke-linecap:round;stroke-linejoin:round;stroke-dasharray:0,3.6045"/><path d="M1207.1 114.1h0" class="st1"/><path d="M1396.3 50.5h3.6v-3.6c0-.4.3-.8.8-.8.4 0 .8.3.8.8v3.6h3.6c.4 0 .8.3.8.8 0 .4-.3.8-.8.8h-3.6v3.6c0 .4-.3.8-.8.8-.4 0-.8-.3-.8-.8v-3.6h-3.6c-.4 0-.8-.3-.8-.8.1-.4.4-.8.8-.8z" class="st11"/><path d="M1266.1 11.1h3.6V7.5c0-.4.3-.8.8-.8.4 0 .8.3.8.8v3.6h3.6c.4 0 .8.3.8.8 0 .4-.3.8-.8.8h-3.6v3.6c0 .4-.3.8-.8.8-.4 0-.8-.3-.8-.8v-3.6h-3.6c-.4 0-.8-.3-.8-.8 0-.4.3-.8.8-.8z" class="st47"/><path d="M1135.9 11.1h3.6V7.5c0-.4.3-.8.8-.8s.8.3.8.8v3.6h3.6c.4 0 .8.3.8.8 0 .4-.3.8-.8.8h-3.6v3.6c0 .4-.3.8-.8.8s-.8-.3-.8-.8v-3.6h-3.6c-.4 0-.8-.3-.8-.8 0-.4.3-.8.8-.8zm0 78.8h3.6v-3.6c0-.4.3-.8.8-.8s.8.3.8.8v3.6h3.6c.4 0 .8.3.8.8 0 .4-.3.8-.8.8h-3.6v3.6c0 .4-.3.8-.8.8s-.8-.3-.8-.8v-3.6h-3.6c-.4 0-.8-.3-.8-.8 0-.4.3-.8.8-.8z" class="st11"/><path d="M1092.5 50.5h3.6v-3.6c0-.4.3-.8.8-.8s.8.3.8.8v3.6h3.6c.4 0 .8.3.8.8s-.3.8-.8.8h-3.6v3.6c0 .4-.3.8-.8.8s-.8-.3-.8-.8v-3.6h-3.6c-.4 0-.8-.3-.8-.8s.3-.8.8-.8z" class="st47"/><path d="M939.6 50.5h3.6v-3.6c0-.4.3-.8.8-.8.4 0 .8.3.8.8v3.6h3.6c.4 0 .8.3.8.8s-.3.8-.8.8h-3.6v3.6c0 .4-.3.8-.8.8-.4 0-.8-.3-.8-.8v-3.6h-3.6c-.4 0-.8-.3-.8-.8s.4-.8.8-.8z" class="st11"/><path d="M1175.5 51.3h0" class="st1"/><path d="M1171.6 51.3H1107" class="st39"/><path d="M1105 51.3h0m102.5 0h0" class="st1"/><path d="M1203.6 51.3h-9.8" style="fill:none;stroke:#000;stroke-width:2;stroke-linecap:round;stroke-linejoin:round;stroke-dasharray:0,3.914"/><path d="M1191.8 51.3h0" class="st1"/><path d="M1179.3 50.5h3.6v-3.6c0-.4.3-.8.8-.8s.8.3.8.8v3.6h3.6c.4 0 .8.3.8.8s-.3.8-.8.8h-3.6v3.6c0 .4-.3.8-.8.8s-.8-.3-.8-.8v-3.6h-3.6c-.4 0-.8-.3-.8-.8s.3-.8.8-.8z" class="st11"/><path d="M1257.3 143.3h0" class="st1"/><path d="m1254.4 146.2-21.9 21.8" style="fill:none;stroke:#000;stroke-width:2;stroke-linecap:round;stroke-linejoin:round;stroke-dasharray:1.026852e-02,4.1074"/><path d="M1231.1 169.5h0" class="st1"/><path d="M1389.2-1.2h23.1v22h-23.1z"/><path d="M1412.2-2.6h-4.2s-.1 0-.1-.1v-2.6c0-3.8-2.8-7.2-6.5-7.5-4.3-.4-7.9 3-7.9 7.2v3s0 .1-.1.1h-4.2c-.5 0-.9.4-.9.9v22.9c0 .5.4.9.9.9h22.9c.5 0 .9-.4.9-.9V-1.8c.1-.4-.3-.8-.8-.8zm-17-3c0-3.3 2.8-5.9 6.1-5.6 2.9.3 5.1 2.9 5.1 5.9v2.7s0 .1-.1.1h-11.1s-.1 0-.1-.1v-3zm-5.1 25.9V-1s0-.1.1-.1h21.3s.1 0 .1.1v4.7s0 .1-.1.1h-10.6c-.4 0-.8.4-.8.8s.4.8.8.8h10.6s.1 0 .1.1v3.4s0 .1-.1.1h-10.6c-.4 0-.8.4-.8.8s.4.8.8.8h10.6s.1 0 .1.1v3.4s0 .1-.1.1h-10.6c-.4 0-.8.4-.8.8s.4.8.8.8h10.6s.1 0 .1.1v4.7s0 .1-.1.1l-21.4-.4c0 .1 0 .1 0 0z" class="st11"/><path d="M1461.3 174.7h-33.2v-10.3h33.2v10.3z"/><path d="M1461.3 163.6h-33.2c-.4 0-.8.4-.8.8v10.2c0 .4.4.8.8.8h33.2c.4 0 .8-.4.8-.8v-10.2c0-.5-.3-.8-.8-.8zm-.8 10.2h-31.6v-8.6h31.6v8.6z" class="st11"/><path d="M1432.7 170.1c.7.8 1.9-.4 1.1-1.1-.7-.8-1.9.3-1.1 1.1zm3.8 0c.7.8 1.9-.4 1.1-1.1-.7-.8-1.9.3-1.1 1.1z" class="st11"/><path d="M1425.5 208.9h0" class="st1"/><path d="M1421.8 208.9h-1.9" style="fill:none;stroke:#000;stroke-width:2;stroke-linecap:round;stroke-linejoin:round;stroke-dasharray:0,3.6665"/><path d="M1418.1 208.9h0" class="st1"/><path d="M1399.1 248.3c0-2.8-2.3-5.1-5.1-5.1s-5.1 2.3-5.1 5.1 2.3 5.1 5.1 5.1 5.1-2.3 5.1-5.1zm-5.2 3.6c-2 0-3.6-1.6-3.6-3.6s1.6-3.6 3.6-3.6 3.6 1.6 3.6 3.6-1.6 3.6-3.6 3.6zm6.2 4.9c-2.8 0-5.1 2.3-5.1 5.1s2.3 5.1 5.1 5.1 5.1-2.3 5.1-5.1c.1-2.8-2.2-5.1-5.1-5.1zm0 8.7c-2 0-3.6-1.6-3.6-3.6s1.6-3.6 3.6-3.6 3.6 1.6 3.6 3.6-1.6 3.6-3.6 3.6zm17.6-17.2c0-2.8-2.3-5.1-5.1-5.1s-5.1 2.3-5.1 5.1 2.3 5.1 5.1 5.1 5.1-2.3 5.1-5.1zm-5.1 3.6c-2 0-3.6-1.6-3.6-3.6s1.6-3.6 3.6-3.6 3.6 1.6 3.6 3.6c-.1 2-1.7 3.6-3.6 3.6zm-28-8.7c-.4 0-.8.3-.8.8v8.7c0 .4.3.8.8.8s.8-.3.8-.8V244c0-.5-.3-.8-.8-.8zm0 13.6c-.4 0-.8.3-.8.8v8.7c0 .4.3.8.8.8s.8-.3.8-.8v-8.7c0-.4-.3-.8-.8-.8zm6.2 0c-.4 0-.8.3-.8.8v8.7c0 .4.3.8.8.8s.8-.3.8-.8v-8.7c0-.4-.3-.8-.8-.8zm18.6 0c-.4 0-.8.3-.8.8v8.7c0 .4.3.8.8.8s.8-.3.8-.8v-8.7c0-.4-.3-.8-.8-.8zm6.3 0c-.4 0-.8.3-.8.8v8.7c0 .4.3.8.8.8s.8-.3.8-.8v-8.7c-.1-.4-.4-.8-.8-.8zm-12.5-3.4c.4 0 .8-.3.8-.8v-8.7c0-.4-.3-.8-.8-.8-.4 0-.8.3-.8.8v8.7c.1.5.4.8.8.8z" class="st11"/><path d="M1357.3 287.7h0" class="st1"/><path d="M1361.3 287.7h62.2" style="fill:none;stroke:#000;stroke-width:2;stroke-linecap:round;stroke-linejoin:round;stroke-dasharray:1.000966e-02,4.0039"/><path d="M1425.5 287.7h0m-5.3-24h0" class="st1"/><path d="m1422.9 266.4 6.7 6.7" class="st53"/><path d="M1431 274.5h0m-23.1-108.2h0" class="st1"/><path d="m1410.8 163.5 18.8-18.8" style="fill:none;stroke:#000;stroke-width:2;stroke-linecap:round;stroke-linejoin:round;stroke-dasharray:1.017315e-02,4.0693"/><path d="M1431 143.3h0m-73.7 44.4h0" class="st1"/><path d="M1357.3 191.9v35.6" style="fill:none;stroke:#000;stroke-width:2;stroke-linecap:round;stroke-linejoin:round;stroke-dasharray:1.046027e-02,4.1841"/><path d="M1357.3 229.6h0m0 37.3h0" class="st1"/><path d="M1357.3 271.1v26.8" style="fill:none;stroke:#000;stroke-width:2;stroke-linecap:round;stroke-linejoin:round;stroke-dasharray:1.030449e-02,4.1218"/><path d="M1357.3 300h0m18.6-51.7h0" class="st1"/><path d="M1378.8 248.3h1.5" class="st57"/><path d="M1381.7 248.3h0m-43.1 0h0" class="st1"/><path d="M1334.7 248.3h-2" style="fill:none;stroke:#000;stroke-width:2;stroke-linecap:round;stroke-linejoin:round;stroke-dasharray:0,3.9772"/><path d="M1330.7 248.3h0" class="st1"/><path d="M1005.6 247.5h3.6v-3.6c0-.4.3-.8.8-.8.4 0 .8.3.8.8v3.6h3.6c.4 0 .8.3.8.8 0 .4-.3.8-.8.8h-3.6v3.6c0 .4-.3.8-.8.8-.4 0-.8-.3-.8-.8v-3.6h-3.6c-.4 0-.8-.3-.8-.8 0-.4.4-.8.8-.8z" class="st11"/><path d="M1376 169.5h0" class="st1"/><path d="M1380.1 169.5h10.4" class="st24"/><path d="M1392.6 169.5h0m-22.1 13.2h0" class="st1"/><path d="m1373.5 185.7 13.6 13.6" style="fill:none;stroke:#000;stroke-width:2;stroke-linecap:round;stroke-linejoin:round;stroke-dasharray:1.065035e-02,4.2601"/><path d="M1388.7 200.8h0m-44.5-18.1h0" class="st1"/><path d="m1341.3 185.6-21.9 21.8" class="st84"/><path d="M1317.9 208.9h0m-47.4 18.6h0" class="st1"/><path d="M1270.5 231.7v6.3" class="st105"/><path d="M1270.5 240.1h0m18.6-31.2h0" class="st1"/><path d="M1293.2 208.9h22.7" style="fill:none;stroke:#000;stroke-width:2;stroke-linecap:round;stroke-linejoin:round;stroke-dasharray:1.027384e-02,4.1095"/><path d="M1317.9 208.9h0m-66.1 0h0" class="st1"/><path d="M1249 208.9h-1.3" style="fill:none;stroke:#000;stroke-width:2;stroke-linecap:round;stroke-linejoin:round;stroke-dasharray:0,2.7532"/><path d="M1246.3 208.9h0m37.3 13.2h0" class="st1"/><path d="m1286.7 225.1 13.6 13.7" style="fill:none;stroke:#000;stroke-width:2;stroke-linecap:round;stroke-linejoin:round;stroke-dasharray:1.069714e-02,4.2789"/><path d="M1301.8 240.3h0m-62.4 47.4h0" class="st1"/><path d="M1243.5 287.7h6.3" style="fill:none;stroke:#000;stroke-width:2;stroke-linecap:round;stroke-linejoin:round;stroke-dasharray:1.038241e-02,4.153"/><path d="M1251.9 287.7h0m37.3 0h0" class="st1"/><path d="M1293.2 287.7h62.1" style="fill:none;stroke:#000;stroke-width:2;stroke-linecap:round;stroke-linejoin:round;stroke-dasharray:0,3.9963"/><path d="M1357.3 287.7h0m-86.8-31.2h0" class="st1"/><path d="M1270.5 260.6v6.3" class="st111"/><path d="M1270.5 269h0m0-120.2h0" class="st1"/><path d="M1270.5 153v6.3" class="st105"/><path d="M1270.5 161.4h0m0 16.3h0" class="st1"/><path d="M1270.5 181.9v6.3" class="st111"/><path d="M1270.5 190.3h0m0-120.3h0" class="st1"/><path d="M1270.5 74.2v6.2" style="fill:none;stroke:#000;stroke-width:2;stroke-linecap:round;stroke-linejoin:round;stroke-dasharray:1.040398e-02,4.1616"/><path d="M1270.5 82.5h0m0 16.3h0" class="st1"/><path d="M1270.5 103v6.3" class="st111"/><path d="M1270.5 111.4h0" class="st1"/><path d="M1270.5-3.3V2" style="fill:none;stroke:#000;stroke-width:2;stroke-linecap:round;stroke-linejoin:round;stroke-dasharray:0,3.5174"/><path d="M1270.5 3.7h0m0 16.4h0" class="st1"/><path d="M1270.5 24.3v6.3" class="st111"/><path d="M1270.5 32.7h0" class="st1"/><path d="M1444.2 190.2c-3.6 0-7.1 1-10.1 2.9-.4.2-.5.7-.2 1.1.2.4.7.5 1.1.2 2.5-1.6 5.4-2.5 8.4-2.7v5.3c-10 .6-14.7 13.2-7.5 20.1 3.5 3.6 9.8 4.6 14.2 1.9.4-.2.5-.7.3-1.1-.2-.4-.7-.5-1.1-.3-3.6 2.2-8.7 1.7-11.7-1.1l3.8-3.8c3.1 2.4 7.9-.1 7.8-4 0-2.7-2.2-4.9-4.9-4.9-1 0-1 1.6 0 1.6 1.8 0 3.3 1.5 3.3 3.3-.1 4.4-6.5 4.4-6.7 0 0-.4-.4-.8-.8-.8-1.6.2-.4 2.9.1 3.7l-3.8 3.8c-5.7-6.4-.9-17 7.8-16.8.4 0 .8-.4.8-.8v-6c8.8.4 15.8 7.5 16.2 16.2h-5.3c-.3-3.9-2.4-7.5-5.8-9.4-.4-.2-.9-.1-1.1.3-.2.4-.1.9.3 1.1 3.1 1.8 5.1 5.2 5.1 8.8 0 1.8-.5 3.6-1.4 5.1-.2.4-.1.9.3 1.1 1.7.8 2.5-4.2 2.6-5.4h5.3c-1.8 22.1-33.3 21.4-34.1-.8 0-2.3.4-4.5 1.3-6.6.4-1-1.1-1.6-1.5-.6-5.2 11.9 4.2 26.1 17.3 25.9 24.8-1 24.8-36.3 0-37.3zm0 78.8c-3.6 0-7.1 1-10.1 2.9-.4.2-.5.7-.2 1.1.2.4.7.5 1.1.2 2.5-1.6 5.4-2.5 8.4-2.7v5.3c-10 .6-14.7 13.2-7.5 20.1 3.5 3.6 9.8 4.6 14.2 1.9.4-.2.5-.7.3-1.1-.2-.4-.7-.5-1.1-.3-3.6 2.2-8.7 1.7-11.7-1.1l3.8-3.8c3.1 2.4 7.9-.1 7.8-4 0-2.7-2.2-4.9-4.9-4.9-1 0-1 1.6 0 1.6 1.8 0 3.3 1.5 3.3 3.3-.1 4.4-6.5 4.4-6.7 0 0-.4-.4-.8-.8-.8-1.6.2-.4 2.9.1 3.7l-3.8 3.8c-5.7-6.4-.9-17 7.8-16.8.4 0 .8-.4.8-.8v-6c8.8.4 15.8 7.5 16.2 16.2h-5.3c-.3-3.9-2.4-7.5-5.8-9.4-.4-.2-.9-.1-1.1.3-.2.4-.1.9.3 1.1 3.1 1.8 5.1 5.2 5.1 8.8 0 1.8-.5 3.6-1.4 5.1-.2.4-.1.9.3 1.1 1.7.8 2.5-4.2 2.6-5.4h5.3c-1.8 22.1-33.3 21.4-34.1-.8 0-2.3.4-4.5 1.3-6.6.4-1-1.1-1.6-1.5-.6-5.2 11.9 4.2 26.1 17.3 25.9 24.8-1 24.8-36.3 0-37.3zm-86.8-39.4c-3.6 0-7.1 1-10.1 2.9-.4.2-.5.7-.2 1.1.2.4.7.5 1.1.2 2.5-1.6 5.4-2.5 8.4-2.7v5.3c-10 .6-14.7 13.2-7.5 20.1 3.5 3.6 9.8 4.6 14.2 1.9.4-.2.5-.7.3-1.1-.2-.4-.7-.5-1.1-.3-3.6 2.2-8.7 1.7-11.7-1.1l3.8-3.8c3.1 2.4 7.9-.1 7.8-4 0-2.7-2.2-4.9-4.9-4.9-1 0-1 1.6 0 1.6 1.8 0 3.3 1.5 3.3 3.3-.1 4.4-6.5 4.4-6.7 0 0-.4-.4-.8-.8-.8-1.6.2-.4 2.9.1 3.7l-3.8 3.8c-5.7-6.4-.9-17 7.8-16.8.4 0 .8-.4.8-.8v-6c8.8.4 15.8 7.5 16.2 16.2h-5.3c-.3-3.9-2.4-7.5-5.8-9.4-.4-.2-.9-.1-1.1.3-.2.4-.1.9.3 1.1 3.1 1.8 5.1 5.2 5.1 8.8 0 1.8-.5 3.6-1.4 5.1-.2.4-.1.9.3 1.1 1.7.8 2.5-4.2 2.6-5.4h5.3c-1.8 22.1-33.3 21.4-34.1-.8 0-2.3.4-4.5 1.3-6.6.4-1-1.1-1.6-1.5-.6-5.2 11.9 4.2 26.1 17.3 25.9 24.8-1 24.8-36.3 0-37.3z"/><path d="M1202.4 169.5h0" class="st1"/><path d="M1206.4 169.5h22.6" style="fill:none;stroke:#000;stroke-width:2;stroke-linecap:round;stroke-linejoin:round;stroke-dasharray:1.022539e-02,4.0902"/><path d="M1231.1 169.5h0m-66 0h0" class="st1"/><path d="M1161.4 169.5h-12.8" class="st38"/><path d="M1146.8 169.5h0m50.1 13.2h0" class="st1"/><path d="m1199.8 185.6 13 12.9" style="fill:none;stroke:#000;stroke-width:2;stroke-linecap:round;stroke-linejoin:round;stroke-dasharray:1.017378e-02,4.0695"/><path d="M1214.2 200h0" class="st1"/><path d="M1183.7 229.6c-3.6 0-7.1 1-10.1 2.9-.4.2-.5.7-.2 1.1.2.4.7.5 1.1.2 2.5-1.6 5.4-2.5 8.4-2.7v5.3c-10 .6-14.7 13.2-7.5 20.1 3.5 3.6 9.8 4.6 14.2 1.9.4-.2.5-.7.3-1.1-.2-.4-.7-.5-1.1-.3-3.6 2.2-8.7 1.7-11.7-1.1l3.8-3.8c3.1 2.4 7.9-.1 7.8-4 0-2.7-2.2-4.9-4.9-4.9-1 0-1 1.6 0 1.6 1.8 0 3.3 1.5 3.3 3.3-.1 4.4-6.5 4.4-6.7 0 0-.4-.4-.8-.8-.8-1.6.2-.4 2.9.1 3.7l-3.8 3.8c-5.7-6.4-.9-17 7.8-16.8.4 0 .8-.4.8-.8v-6c8.8.4 15.8 7.5 16.2 16.2h-5.3c-.3-3.9-2.4-7.5-5.8-9.4-.4-.2-.9-.1-1.1.3-.2.4-.1.9.3 1.1 3.1 1.8 5.1 5.2 5.1 8.8 0 1.8-.5 3.6-1.4 5.1-.2.4-.1.9.3 1.1 1.7.8 2.5-4.2 2.6-5.4h5.3c-1.8 22.1-33.3 21.4-34.1-.8 0-2.3.4-4.5 1.3-6.6.4-1-1.1-1.6-1.5-.6-5.2 11.9 4.2 26.1 17.3 25.9 24.8-1 24.8-36.3 0-37.3zm0-78.8c-3.6 0-7.1 1-10.1 2.9-.4.2-.5.7-.2 1.1.2.4.7.5 1.1.2 2.5-1.6 5.4-2.5 8.4-2.7v5.3c-10 .6-14.7 13.2-7.5 20.1 3.5 3.6 9.8 4.6 14.2 1.9.4-.2.5-.7.3-1.1-.2-.4-.7-.5-1.1-.3-3.6 2.2-8.7 1.7-11.7-1.1l3.8-3.8c3.1 2.4 7.9-.1 7.8-4 0-2.7-2.2-4.9-4.9-4.9-1 0-1 1.6 0 1.6 1.8 0 3.3 1.5 3.3 3.3-.1 4.4-6.5 4.4-6.7 0 0-.4-.4-.8-.8-.8-1.6.2-.4 2.9.1 3.7l-3.8 3.8c-5.7-6.4-.9-17 7.8-16.8.4 0 .8-.4.8-.8v-6c8.8.4 15.8 7.5 16.2 16.2h-5.3c-.3-3.9-2.4-7.5-5.8-9.4-.4-.2-.9-.1-1.1.3-.2.4-.1.9.3 1.1 3.1 1.8 5.1 5.2 5.1 8.8 0 1.8-.5 3.6-1.4 5.1-.2.4-.1.9.3 1.1 1.7.8 2.5-4.2 2.6-5.4h5.3c-1.8 22.1-33.3 21.4-34.1-.8 0-2.3.4-4.5 1.3-6.6.4-1-1.1-1.6-1.5-.6-5.2 11.9 4.2 26.1 17.3 25.9 24.8-.9 24.8-36.3 0-37.3zm86.9 39.4c-3.6 0-7.1 1-10.1 2.9-.4.2-.5.7-.2 1.1.2.4.7.5 1.1.2 2.5-1.6 5.4-2.5 8.4-2.7v5.3c-10 .6-14.7 13.2-7.5 20.1 3.5 3.6 9.8 4.6 14.2 1.9.4-.2.5-.7.3-1.1-.2-.4-.7-.5-1.1-.3-3.6 2.2-8.7 1.7-11.7-1.1l3.8-3.8c3.1 2.4 7.9-.1 7.8-4 0-2.7-2.2-4.9-4.9-4.9-1 0-1 1.6 0 1.6 1.8 0 3.3 1.5 3.3 3.3-.1 4.4-6.5 4.4-6.7 0 0-.4-.4-.8-.8-.8-1.6.2-.4 2.9.1 3.7l-3.8 3.8c-5.7-6.4-.9-17 7.8-16.8.4 0 .8-.4.8-.8v-6c8.8.4 15.8 7.5 16.2 16.2h-5.3c-.3-3.9-2.4-7.5-5.8-9.4-.4-.2-.9-.1-1.1.3-.2.4-.1.9.3 1.1 3.1 1.8 5.1 5.2 5.1 8.8 0 1.8-.5 3.6-1.4 5.1-.2.4-.1.9.3 1.1 1.7.8 2.5-4.2 2.6-5.4h5.3c-1.8 22.1-33.3 21.4-34.1-.8 0-2.3.4-4.5 1.3-6.6.4-1-1.1-1.6-1.5-.6-5.2 11.9 4.2 26.1 17.3 25.9 24.7-1 24.7-36.3 0-37.3zm0 78.8c-3.6 0-7.1 1-10.1 2.9-.4.2-.5.7-.2 1.1.2.4.7.5 1.1.2 2.5-1.6 5.4-2.5 8.4-2.7v5.3c-10 .6-14.7 13.2-7.5 20.1 3.5 3.6 9.8 4.6 14.2 1.9.4-.2.5-.7.3-1.1-.2-.4-.7-.5-1.1-.3-3.6 2.2-8.7 1.7-11.7-1.1l3.8-3.8c3.1 2.4 7.9-.1 7.8-4 0-2.7-2.2-4.9-4.9-4.9-1 0-1 1.6 0 1.6 1.8 0 3.3 1.5 3.3 3.3-.1 4.4-6.5 4.4-6.7 0 0-.4-.4-.8-.8-.8-1.6.2-.4 2.9.1 3.7l-3.8 3.8c-5.7-6.4-.9-17 7.8-16.8.4 0 .8-.4.8-.8v-6c8.8.4 15.8 7.5 16.2 16.2h-5.3c-.3-3.9-2.4-7.5-5.8-9.4-.4-.2-.9-.1-1.1.3-.2.4-.1.9.3 1.1 3.1 1.8 5.1 5.2 5.1 8.8 0 1.8-.5 3.6-1.4 5.1-.2.4-.1.9.3 1.1 1.7.8 2.5-4.2 2.6-5.4h5.3c-1.8 22.1-33.3 21.4-34.1-.8 0-2.3.4-4.5 1.3-6.6.4-1-1.1-1.6-1.5-.6-5.2 11.9 4.2 26.1 17.3 25.9 24.7-1 24.7-36.3 0-37.3z"/><path d="M1183.6 217.1h0" class="st1"/><path d="M1183.6 221.2v6.3" class="st92"/><path d="M1183.6 229.6h0m0-41.4h0" class="st1"/><path d="M1183.6 192.4v6.2" class="st42"/><path d="M1183.6 200.7h0m0 66.2h0" class="st1"/><path d="M1183.6 271.1v6.4" class="st43"/><path d="M1183.6 279.6h0m18.7-31.3h0" class="st1"/><path d="M1206.3 248.3h54.1" class="st94"/><path d="M1262.4 248.3h0m-130.3 0h0" class="st1"/><path d="M1128 248.3h-107.8" class="st70"/><path d="M1018.2 248.3h0m146.8 0h0" class="st1"/><path d="M1160.9 248.3h-10.4" style="fill:none;stroke:#000;stroke-width:2;stroke-linecap:round;stroke-linejoin:round;stroke-dasharray:1.034311e-02,4.1372"/><path d="M1148.4 248.3h0m48.4 13.2h0" class="st1"/><path d="m1199.4 264.1 11.8 11.7" style="fill:none;stroke:#000;stroke-width:2;stroke-linecap:round;stroke-linejoin:round;stroke-dasharray:0,3.674"/><path d="M1212.5 277.1h0" class="st1"/><path d="M1396.3 168.7h3.6v-3.6c0-.4.3-.8.8-.8.4 0 .8.3.8.8v3.6h3.6c.4 0 .8.3.8.8 0 .4-.3.8-.8.8h-3.6v3.6c0 .4-.3.8-.8.8-.4 0-.8-.3-.8-.8v-3.6h-3.6c-.4 0-.8-.3-.8-.8.1-.4.4-.8.8-.8zm-130.2 0h3.6v-3.6c0-.4.3-.8.8-.8.4 0 .8.3.8.8v3.6h3.6c.4 0 .8.3.8.8 0 .4-.3.8-.8.8h-3.6v3.6c0 .4-.3.8-.8.8-.4 0-.8-.3-.8-.8v-3.6h-3.6c-.4 0-.8-.3-.8-.8 0-.4.3-.8.8-.8z" class="st47"/><path d="M1135.9 168.7h3.6v-3.6c0-.4.3-.8.8-.8s.8.3.8.8v3.6h3.6c.4 0 .8.3.8.8 0 .4-.3.8-.8.8h-3.6v3.6c0 .4-.3.8-.8.8s-.8-.3-.8-.8v-3.6h-3.6c-.4 0-.8-.3-.8-.8 0-.4.3-.8.8-.8zm0 78.8h3.6v-3.6c0-.4.3-.8.8-.8s.8.3.8.8v3.6h3.6c.4 0 .8.3.8.8 0 .4-.3.8-.8.8h-3.6v3.6c0 .4-.3.8-.8.8s-.8-.3-.8-.8v-3.6h-3.6c-.4 0-.8-.3-.8-.8 0-.4.3-.8.8-.8zm43.4-118.2h3.6v-3.6c0-.4.3-.8.8-.8s.8.3.8.8v3.6h3.6c.4 0 .8.3.8.8 0 .4-.3.8-.8.8h-3.6v3.6c0 .4-.3.8-.8.8s-.8-.3-.8-.8v-3.6h-3.6c-.4 0-.8-.3-.8-.8 0-.4.3-.8.8-.8zm173.6 0h3.6v-3.6c0-.4.3-.8.8-.8s.8.3.8.8v3.6h3.6c.4 0 .8.3.8.8 0 .4-.3.8-.8.8h-3.6v3.6c0 .4-.3.8-.8.8s-.8-.3-.8-.8v-3.6h-3.6c-.4 0-.8-.3-.8-.8 0-.4.4-.8.8-.8zm-260.4 0h3.6v-3.6c0-.4.3-.8.8-.8s.8.3.8.8v3.6h3.6c.4 0 .8.3.8.8 0 .4-.3.8-.8.8h-3.6v3.6c0 .4-.3.8-.8.8s-.8-.3-.8-.8v-3.6h-3.6c-.4 0-.8-.3-.8-.8 0-.4.3-.8.8-.8z" class="st11"/><path d="M1092.5 208.1h3.6v-3.6c0-.4.3-.8.8-.8s.8.3.8.8v3.6h3.6c.4 0 .8.3.8.8 0 .4-.3.8-.8.8h-3.6v3.6c0 .4-.3.8-.8.8s-.8-.3-.8-.8v-3.6h-3.6c-.4 0-.8-.3-.8-.8 0-.4.3-.8.8-.8zm86.8 78.8h3.6v-3.6c0-.4.3-.8.8-.8s.8.3.8.8v3.6h3.6c.4 0 .8.3.8.8 0 .4-.3.8-.8.8h-3.6v3.6c0 .4-.3.8-.8.8s-.8-.3-.8-.8v-3.6h-3.6c-.4 0-.8-.3-.8-.8 0-.4.3-.8.8-.8z" class="st47"/><path d="M1175.5 208.9h0" class="st1"/><path d="M1171.4 208.9h-63.8" style="fill:none;stroke:#000;stroke-width:2;stroke-linecap:round;stroke-linejoin:round;stroke-dasharray:1.026817e-02,4.1073"/><path d="M1105.5 208.9h0m102.5 0h0" class="st1"/><path d="M1204 208.9h-10.2" style="fill:none;stroke:#000;stroke-width:2;stroke-linecap:round;stroke-linejoin:round;stroke-dasharray:1.011619e-02,4.0465"/><path d="M1191.8 208.9h0" class="st1"/><path d="M1179.3 208.1h3.6v-3.6c0-.4.3-.8.8-.8s.8.3.8.8v3.6h3.6c.4 0 .8.3.8.8 0 .4-.3.8-.8.8h-3.6v3.6c0 .4-.3.8-.8.8s-.8-.3-.8-.8v-3.6h-3.6c-.4 0-.8-.3-.8-.8 0-.4.3-.8.8-.8zm131 0h3.6v-3.6c0-.4.3-.8.8-.8s.8.3.8.8v3.6h3.6c.4 0 .8.3.8.8 0 .4-.3.8-.8.8h-3.6v3.6c0 .4-.3.8-.8.8s-.8-.3-.8-.8v-3.6h-3.6c-.4 0-.8-.3-.8-.8 0-.4.4-.8.8-.8z" class="st11"/><path d="m1400.8 77.5 13.8 3V88l-27.7 5.9V80.5z"/><path d="m1415 79.3-14.1-3h-.3l-14.1 3c-.4.1-.6.4-.6.8v16.2c0 8.2 6.7 14.9 14.9 14.9s14.9-6.7 14.9-14.9V80.1c-.1-.4-.3-.7-.7-.8zm-14.2-1.4 13.3 2.8v7.2l-26.5 5.6V80.7l13.2-2.8zm0 31.6c-7.3 0-13.3-5.9-13.3-13.3v-1.1l26.5-5.6v6.7c0 7.4-5.9 13.3-13.2 13.3z" class="st11"/><path d="M1215.6 118.9h22.7v22h-22.7z"/><path d="M1243.7 112.7h-33.2c-.4 0-.8.4-.8.8v33.2c0 .4.4.8.8.8h33.2c.4 0 .8-.4.8-.8v-33.2c0-.5-.4-.8-.8-.8zm-.8 33.2h-31.6v-31.6h31.6v31.6z" class="st11"/><path d="M1215.6 120.7c.4 0 .8-.4.8-.8v-.5h21.4v21.4h-21.4v-.5c0-1-1.6-1-1.6 0v1.3c0 .4.4.8.8.8h23c.4 0 .8-.4.8-.8v-23c0-.4-.4-.8-.8-.8h-23c-.4 0-.8.4-.8.8v1.3c0 .4.4.8.8.8z" class="st11"/><path d="M1214.3 128.3h2.6c.4 0 .8-.4.8-.8v-5.1c0-.4-.4-.8-.8-.8h-2.6c-.4 0-.8.4-.8.8v5.1c0 .5.4.8.8.8zm.8-5.1h1v3.5h-1v-3.5zm-.8 15.4h2.6c.4 0 .8-.4.8-.8v-5.1c0-.4-.4-.8-.8-.8h-2.6c-.4 0-.8.4-.8.8v5.1c0 .4.4.8.8.8zm.8-5.1h1v3.5h-1v-3.5zm8.9 2.3c.3.3.8.3 1.1 0l1.9-1.9c1.5 1.1 3.8 1.1 5.3 0l1.9 1.9c.7.7 1.9-.4 1.1-1.1l-1.9-1.9c1.1-1.5 1.1-3.8 0-5.3l1.9-1.9c.7-.7-.4-1.9-1.1-1.1l-1.9 1.9c-1.5-1.1-3.8-1.1-5.3 0l-1.9-1.9c-.7-.7-1.9.4-1.1 1.1l1.9 1.9c-1.1 1.5-1.1 3.8 0 5.3l-1.9 1.9c-.3.3-.3.8 0 1.1zm8.7-5.7c-.1 4-6 4-6.1 0 .1-4 6-4 6.1 0z" class="st11"/><circle cx="1229.6" cy="130.1" r=".8" class="st11"/><path d="M1266.1 247.5h3.6v-3.6c0-.4.3-.8.8-.8.4 0 .8.3.8.8v3.6h3.6c.4 0 .8.3.8.8s-.3.8-.8.8h-3.6v3.6c0 .4-.3.8-.8.8-.4 0-.8-.3-.8-.8v-3.6h-3.6c-.4 0-.8-.3-.8-.8s.4-.8.8-.8z" class="st11"/><circle cx="1235.6" cy="61" r="7.4"/><circle cx="1233.7" cy="42.5" r="7.4"/><circle cx="1218.6" cy="53.6" r="7.4"/><path d="M1233.7 50.7c4.6 0 8.3-3.7 8.3-8.3.1-6-6.6-10.2-11.9-7.4-.2.1-.5.2-.7.4-.2.1-.4.3-.6.4-6.4 4.7-3 14.9 4.9 14.9zm-4-13.6c.2-.1.3-.2.5-.4l.6-.3c4.3-2.2 9.7 1.2 9.6 6 0 3.7-3 6.7-6.7 6.7-6.3 0-9.1-8.3-4-12z" class="st11"/><path d="M1218.6 45.1c-1.3 0-2.5.3-3.6.8-.2.1-.5.2-.7.4-.2.1-.4.3-.6.4-6.3 4.7-2.9 14.9 5 14.9 10.8-.4 10.8-16.1-.1-16.5zm0 15c-6.3.1-9.1-8.3-4-12 .2-.1.3-.2.5-.4l.6-.3c4.3-2.2 9.7 1.2 9.6 6-.1 3.7-3 6.7-6.7 6.7zm17-7.4c-1.3 0-2.5.3-3.6.8-.2.1-.5.2-.7.4-.2.1-.4.3-.6.4-6.3 4.7-2.9 14.9 5 14.9 10.9-.4 10.9-16.1-.1-16.5zm0 15c-6.3.1-9.1-8.3-4-12 .2-.1.3-.2.5-.4l.6-.3c4.3-2.2 9.7 1.2 9.6 6 0 3.7-3 6.7-6.7 6.7zm-6-24.2c.3-.3.3-.8 0-1.1-.2-.2-.6-.3-.9-.2-.1 0-.2.1-.3.2-.3.3-.3.8 0 1.1.1.1.2.1.3.2.3.1.6 0 .9-.2zm6.5 3.8c.2 0 .3-.1.5-.2.4-.3.4-.8.2-1.1-.3-.4-.8-.4-1.1-.2-.4.3-.4.8-.2 1.1.1.3.4.4.6.4zm-4.6-3.2c.4.1.9-.1 1-.5.1-.4-.1-.9-.5-1-1.1-.3-1.5 1.2-.5 1.5zm2.7 1.3c.2 0 .5-.1.7-.3.3-.4.2-.9-.2-1.1-.4-.2-.9-.2-1.1.2-.3.4-.2.9.2 1.1 0 0 .2.1.4.1z" class="st11"/><path d="M1223.7 45.5c.2 0 .3-.1.5-.2.8-.6-.1-1.9-.9-1.3-.4.3-.4.8-.2 1.1.2.2.4.4.6.4zm-2.9 6.3c0-1-1.6-1.1-1.6 0 0 1 1.6 1 1.6 0zm.4 2.5c-.1-.4-.6-.7-1-.5-.4.1-.7.6-.5 1 .1.4.6.7 1 .5.4-.2.6-.6.5-1zm-1-4.5c.4.2.9-.1 1-.5.1-.4-.1-.9-.5-1-.4-.1-.9.1-1 .5-.1.4.1.9.5 1zm1 6.5c-.4.2-.4.7-.2 1.1.3.4.8.5 1.1.2.4-.3.4-.8.2-1.1-.2-.3-.7-.4-1.1-.2zm16.3-.9c-.3-.3-.8-.3-1.1 0-.1.1-.1.2-.2.3-.1.2-.1.4 0 .6 0 .1.1.2.2.3.3.3.8.3 1.1 0 .1-.1.1-.2.2-.3.1-.2.1-.4 0-.6-.1-.2-.1-.2-.2-.3zm-6.9 4.4c-.4.1-.7.5-.6.9.1.4.5.7.9.6.4-.1.7-.5.6-.9 0-.4-.4-.7-.9-.6zm4.2-2.3c-.3.3-.3.8 0 1.1.3.3.8.3 1.1 0 .3-.3.3-.8 0-1.1-.3-.3-.8-.3-1.1 0zm-1.9 1.5c-.4.2-.5.7-.3 1.1.2.4.7.5 1.1.3.4-.2.5-.7.3-1.1-.2-.4-.7-.5-1.1-.3zm4.7-8.3c-.1 0-.2.1-.3.2-.2.2-.3.6-.2.9 0 .1.1.2.2.3.2.2.6.3.9.2.1 0 .2-.1.3-.2.1-.1.1-.2.2-.3.1-.3.1-.7-.2-.9-.1-.1-.2-.1-.3-.2-.2-.1-.4-.1-.6 0zm-11.6 8.7c-.4-.2-.9.1-1 .5-.2.4 0 .9.5 1 .4.2.9 0 1-.5.1-.3-.1-.8-.5-1z" class="st11"/><circle cx="1323.2" cy="258.4" r="7.4"/><circle cx="1321.3" cy="240" r="7.4"/><circle cx="1306.2" cy="251.1" r="7.4"/><path d="M1321.3 248.1c4.6 0 8.3-3.7 8.3-8.3.1-6-6.6-10.2-11.9-7.4-.2.1-.5.2-.7.4-.2.1-.4.3-.6.4-6.4 4.7-3 14.9 4.9 14.9zm-4-13.6c.2-.1.3-.2.5-.4l.6-.3c4.3-2.2 9.7 1.2 9.6 6 0 3.7-3 6.7-6.7 6.7-6.3.1-9.1-8.3-4-12z" class="st11"/><path d="M1306.2 242.6c-1.3 0-2.5.3-3.6.8-.2.1-.5.2-.7.4-.2.1-.4.3-.6.4-6.3 4.7-2.9 14.9 5 14.9 10.8-.4 10.8-16.1-.1-16.5zm0 14.9c-6.3.1-9.1-8.3-4-12 .2-.1.3-.2.5-.4l.6-.3c4.3-2.2 9.7 1.2 9.6 6-.1 3.7-3 6.7-6.7 6.7zm17-7.3c-1.3 0-2.5.3-3.6.8-.2.1-.5.2-.7.4-.2.1-.4.3-.6.4-6.3 4.7-2.9 14.9 5 14.9 10.9-.4 10.9-16.1-.1-16.5zm0 14.9c-6.3.1-9.1-8.3-4-12 .2-.1.3-.2.5-.4l.6-.3c4.3-2.2 9.7 1.2 9.6 6 0 3.7-3 6.7-6.7 6.7zm-6-24.2c.3-.3.3-.8 0-1.1-.2-.2-.6-.3-.9-.2-.1 0-.2.1-.3.2-.3.3-.3.8 0 1.1.1.1.2.1.3.2.3.1.6.1.9-.2zm6.5 3.8c.2 0 .3-.1.5-.2.4-.3.4-.8.2-1.1-.3-.4-.8-.4-1.1-.2-.4.3-.4.8-.2 1.1.1.3.4.4.6.4zm-4.6-3.2c.4.1.9-.1 1-.5.1-.4-.1-.9-.5-1-1.1-.3-1.5 1.2-.5 1.5zm2.7 1.3c.2 0 .5-.1.7-.3.3-.4.2-.9-.2-1.1-.4-.2-.9-.2-1.1.2-.3.4-.2.9.2 1.1 0 0 .2.1.4.1z" class="st11"/><path d="M1311.3 242.9c.2 0 .3-.1.5-.2.8-.6-.1-1.9-.9-1.3-.4.3-.4.8-.2 1.1.2.3.4.4.6.4zm-2.9 6.3c0-1-1.6-1.1-1.6 0s1.6 1.1 1.6 0zm.4 2.5c-.1-.4-.6-.7-1-.5-.4.1-.7.6-.5 1 .1.4.6.7 1 .5.4-.1.6-.6.5-1zm-1-4.4c.4.2.9-.1 1-.5.1-.4-.1-.9-.5-1-.4-.1-.9.1-1 .5-.1.4.1.8.5 1zm1 6.5c-.4.2-.4.7-.2 1.1.3.4.8.5 1.1.2.4-.3.4-.8.2-1.1-.2-.4-.7-.5-1.1-.2zm16.3-1c-.3-.3-.8-.3-1.1 0-.1.1-.1.2-.2.3-.1.2-.1.4 0 .6 0 .1.1.2.2.3.3.3.8.3 1.1 0 .1-.1.1-.2.2-.3.1-.2.1-.4 0-.6-.1-.1-.1-.2-.2-.3zm-6.9 4.5c-.4.1-.7.5-.6.9.1.4.5.7.9.6.4-.1.7-.5.6-.9 0-.4-.4-.7-.9-.6zm4.2-2.3c-.3.3-.3.8 0 1.1.3.3.8.3 1.1 0 .3-.3.3-.8 0-1.1-.3-.3-.8-.3-1.1 0zm-1.9 1.4c-.4.2-.5.7-.3 1.1.2.4.7.5 1.1.3.4-.2.5-.7.3-1.1-.2-.3-.7-.5-1.1-.3zm4.7-8.3c-.1 0-.2.1-.3.2-.2.2-.3.6-.2.9 0 .1.1.2.2.3.2.2.6.3.9.2.1 0 .2-.1.3-.2.1-.1.1-.2.2-.3.1-.3.1-.7-.2-.9-.1-.1-.2-.1-.3-.2-.2-.1-.4-.1-.6 0zm-11.6 8.8c-.4-.2-.9.1-1 .5-.2.4 0 .9.5 1 .4.2.9 0 1-.5.1-.4-.1-.9-.5-1z" class="st11"/><path d="M1298.6 74.1h32.4v33.3h-32.4z"/><path d="m1306.3 100.2 8.9-8.9c.3-.3.3-.8 0-1.1l-8.9-8.9c-.8-.8-2 .3-1.1 1.1l8.4 8.4-8.4 8.4c-.9.7.3 1.8 1.1 1zm8.9-.6c0 .4.4.8.8.8h8.9c.4 0 .8-.4.8-.8s-.4-.8-.8-.8h-8.9c-.5 0-.8.3-.8.8z" class="st11"/><path d="M1331.3 73.3h-33.2c-.4 0-.8.4-.8.8v33.2c0 .4.4.8.8.8h33.2c.4 0 .8-.4.8-.8V74.1c0-.4-.4-.8-.8-.8zm-.8 33.2h-31.6V74.9h31.6v31.6zm-64.3-16.6h3.6v-3.6c0-.4.3-.8.8-.8.4 0 .8.3.8.8v3.6h3.6c.4 0 .8.3.8.8 0 .4-.3.8-.8.8h-3.6v3.6c0 .4-.3.8-.8.8-.4 0-.8-.3-.8-.8v-3.6h-3.6c-.4 0-.8-.3-.8-.8 0-.4.4-.8.8-.8z" class="st11"/><path d="M1303.6-11.6h22v32.8h-22z"/><path d="M1326.2-12.8h-23c-.4 0-.8.4-.8.8v33.2c0 .4.4.8.8.8h23c.4 0 .8-.4.8-.8V-12c0-.5-.4-.8-.8-.8zM1307 16.6c-.2 0-.4.1-.6.2l-2.5 2.5V-3.4c.8.7 1.9 1.2 3 1.2h6.9v18.8h-6.8zm.4 1.6h14.7l2.2 2.2h-19.1l2.2-2.2zm15.5-1.4c-.1-.1-.4-.2-.6-.2h-6.9V-2.3h6.9c1.2 0 2.2-.4 3-1.2v22.7l-2.4-2.4zm2.5-23.7c0 1.7-1.4 3-3 3H1307c-1.7 0-3-1.4-3-3v-4.3h21.4v4.3z" class="st11"/><path d="M1216 271.5h22v32.8h-22z"/><path d="M1238.6 270.3h-23c-.4 0-.8.4-.8.8v33.2c0 .4.4.8.8.8h23c.4 0 .8-.4.8-.8v-33.2c0-.5-.4-.8-.8-.8zm-19.2 29.4c-.2 0-.4.1-.6.2l-2.5 2.5v-22.7c.8.7 1.9 1.2 3 1.2h6.9v18.8h-6.8zm.4 1.6h14.7l2.2 2.2h-19.1l2.2-2.2zm15.5-1.4c-.1-.1-.4-.2-.6-.2h-6.9v-18.8h6.9c1.2 0 2.2-.4 3-1.2v22.7l-2.4-2.5zm2.5-23.7c0 1.7-1.4 3-3 3h-15.3c-1.7 0-3-1.4-3-3v-4.3h21.4v4.3z" class="st11"/><path d="M1224.5 277h5.1c1 0 1-1.6 0-1.6h-5.1c-1 0-1 1.6 0 1.6z" class="st11"/><path d="M1417.3 213.8h-33.2v-10.3h33.2v10.3z"/><path d="M1417.3 202.7h-33.2c-.4 0-.8.4-.8.8v10.2c0 .4.4.8.8.8h33.2c.4 0 .8-.4.8-.8v-10.2c0-.5-.3-.8-.8-.8zm-.8 10.2h-31.6v-8.6h31.6v8.6zm-20.9-16.3c1.4 0 2.7-.9 3.1-2.2.1-.2.2-.3.5-.3h2.8c.3 0 .5.2.5.5v1.3c0 .4.4.8.8.8s.8-.4.8-.8v-1.3c0-.3.2-.5.5-.5s.5.2.5.5v1.3c0 .4.4.8.8.8s.8-.4.8-.8v-1.3c0-.3.2-.5.5-.5h.5v.5c0 1 1.6 1 1.6 0 0-.7.3-2.1-.8-2.1h-9.2c-.2 0-.4-.1-.5-.3-1.2-3.4-6.4-2.7-6.5 1.1 0 1.8 1.5 3.3 3.3 3.3zm0-5.1c2.3 0 2.3 3.5 0 3.5s-2.3-3.5 0-3.5z" class="st11"/><path d="M1388.7 209.1c.7.8 1.9-.4 1.1-1.1-.7-.7-1.9.4-1.1 1.1zm3.8 0c.7.8 1.9-.4 1.1-1.1-.7-.7-1.8.4-1.1 1.1zm3.8 0c.7.8 1.9-.4 1.1-1.1-.7-.7-1.8.4-1.1 1.1zm3.9 0c.7.8 1.9-.4 1.1-1.1-.7-.7-1.9.4-1.1 1.1zm3.8 0c.7.8 1.9-.4 1.1-1.1-.7-.7-1.9.4-1.1 1.1zm3.8 0c.7.8 1.9-.4 1.1-1.1-.7-.7-1.8.4-1.1 1.1zm3.9 0c.7.8 1.9-.4 1.1-1.1-.7-.7-1.9.4-1.1 1.1z" class="st11"/><path d="M1383.6 124.1h33.1v12.5h-33.1z"/><path d="M1406.5 135.8h-22.2v-11.2h31.6v5.6c0 .4.4.8.8.8s.8-.4.8-.8v-6.4c0-.4-.4-.8-.8-.8h-33.2c-.4 0-.8.4-.8.8v12.8c0 .4.4.8.8.8h23c.4 0 .8-.4.8-.8s-.3-.8-.8-.8z" class="st11"/><path d="M1388.6 129.5c-.4 0-.8.4-.8.8s.4.8.8.8h7.7c.4 0 .8-.4.8-.8s-.4-.8-.8-.8h-7.7zm29.6 3.8-3.8-.8h-.3l-3.8.8c-.4.1-.6.4-.6.8v4.4c0 2.6 2.1 4.6 4.6 4.6s4.6-2.1 4.6-4.6v-4.4c-.1-.4-.4-.7-.7-.8z" class="st11"/><path d="M1209.9 5.9h33.1v12.5h-33.1z"/><path d="M1232.8 17.7h-22.2V6.5h31.6v5.6c0 .4.4.8.8.8s.8-.4.8-.8V5.7c0-.4-.4-.8-.8-.8h-33.2c-.4 0-.8.4-.8.8v12.8c0 .4.4.8.8.8h23c.4 0 .8-.4.8-.8 0-.5-.3-.8-.8-.8z" class="st11"/><path d="M1215 11.3c-.4 0-.8.4-.8.8s.4.8.8.8h7.7c.4 0 .8-.4.8-.8s-.4-.8-.8-.8h-7.7zm29.5 3.8-3.8-.8h-.3l-3.8.8c-.4.1-.6.4-.6.8v4.4c0 2.6 2.1 4.6 4.6 4.6 2.6 0 4.6-2.1 4.6-4.6v-4.4c-.1-.4-.3-.7-.7-.8z" class="st11"/></g></g></switch></svg>