<svg xmlns="http://www.w3.org/2000/svg" xmlns:xlink="http://www.w3.org/1999/xlink" xml:space="preserve" id="Layer_2" x="0" y="0" style="enable-background:new 0 0 390 279" version="1.1" viewBox="0 0 390 279"><style>.st1,.st3{fill:none;stroke:#000;stroke-width:2;stroke-linecap:round;stroke-linejoin:round}.st3{stroke-dasharray:1.097309e-02,4.3892}.st10,.st9{stroke-miterlimit:10}.st9{fill:#4d4d4d;stroke:#4d4d4d;stroke-width:.5}.st10{fill:#e00;stroke:#e00;stroke-width:.25}.st11{fill:#4d4d4d}</style><switch><g><defs><path id="SVGID_1_" d="M0 0h390v279H0z"/></defs><use xlink:href="#SVGID_1_" style="overflow:visible;fill:#2e2e2e"/><clipPath id="SVGID_00000084494249777410594610000007912318134525948564_"><use xlink:href="#SVGID_1_" style="overflow:visible"/></clipPath><g style="clip-path:url(#SVGID_00000084494249777410594610000007912318134525948564_)"><path d="M53.3 139.3h0" class="st1"/><path d="M49.2 139.3H2.1" style="fill:none;stroke:#000;stroke-width:2;stroke-linecap:round;stroke-linejoin:round;stroke-dasharray:1.021699e-02,4.0868"/><path d="M0 139.3h0m8.8-40h0" class="st1"/><path d="M4.4 99.3H2.2" class="st3"/><path d="M0 99.3h0m275.7 120.8h0" class="st1"/><path d="M271.6 220.1H160.9" style="fill:none;stroke:#000;stroke-width:2;stroke-linecap:round;stroke-linejoin:round;stroke-dasharray:1.004304e-02,4.0172"/><path d="M158.9 220.1h0m-16.6 0h0" class="st1"/><path d="M138.3 220.1H71.9" style="fill:none;stroke:#000;stroke-width:2;stroke-linecap:round;stroke-linejoin:round;stroke-dasharray:1.003507e-02,4.014"/><path d="M69.9 220.1h0m-16.6 0h0" class="st1"/><path d="M49.2 220.1H2.1" style="fill:none;stroke:#000;stroke-width:2;stroke-linecap:round;stroke-linejoin:round;stroke-dasharray:1.022229e-02,4.0889"/><path d="M0 220.1h0m8.8 40.3h0" class="st1"/><path d="M4.4 260.4H2.2" class="st3"/><path d="M0 260.4h0m97.8 0h0" class="st1"/><path d="M93.7 260.4H27.3" style="fill:none;stroke:#000;stroke-width:2;stroke-linecap:round;stroke-linejoin:round;stroke-dasharray:1.003956e-02,4.0158"/><path d="M25.3 260.4h0m28-242.2h0" class="st1"/><path d="M49.2 18.2H2.1" style="fill:none;stroke:#000;stroke-width:2;stroke-linecap:round;stroke-linejoin:round;stroke-dasharray:1.021844e-02,4.0874"/><path d="M0 18.2h0" class="st1"/><path d="M21.6 259.6h-3.7v-3.7c0-.4-.4-.8-.8-.8s-.8.4-.8.8v3.7h-3.7c-.4 0-.8.4-.8.8s.4.8.8.8h3.7v3.7c0 .4.4.8.8.8s.8-.4.8-.8v-3.7h3.7c.4 0 .8-.4.8-.8s-.4-.8-.8-.8zm44.5-40.3h-3.7v-3.7c0-.4-.4-.8-.8-.8s-.8.4-.8.8v3.7h-3.7c-.4 0-.8.4-.8.8s.4.8.8.8h3.7v3.7c0 .4.4.8.8.8s.8-.4.8-.8v-3.7h3.7c.4 0 .8-.4.8-.8 0-.5-.4-.8-.8-.8z" class="st9"/><path d="M66.1 17.4h-3.7v-3.7c0-.4-.4-.8-.8-.8s-.8.4-.8.8v3.7h-3.7c-.4 0-.8.4-.8.8s.4.8.8.8h3.7v3.7c0 .4.4.8.8.8s.8-.4.8-.8V19h3.7c.4 0 .8-.4.8-.8s-.4-.8-.8-.8z" class="st10"/><path d="M110.5 178.9h-3.7v-3.7c0-.4-.4-.8-.8-.8s-.8.4-.8.8v3.7h-3.7c-.4 0-.8.4-.8.8s.4.8.8.8h3.7v3.7c0 .4.4.8.8.8s.8-.4.8-.8v-3.7h3.7c.4 0 .8-.4.8-.8 0-.5-.3-.8-.8-.8z" class="st11"/><path d="M110.5 259.6h-3.7v-3.7c0-.4-.4-.8-.8-.8s-.8.4-.8.8v3.7h-3.7c-.4 0-.8.4-.8.8s.4.8.8.8h3.7v3.7c0 .4.4.8.8.8s.8-.4.8-.8v-3.7h3.7c.4 0 .8-.4.8-.8s-.3-.8-.8-.8z" class="st10"/><path d="M66.1 138.5h-3.7v-3.7c0-.4-.4-.8-.8-.8s-.8.4-.8.8v3.7h-3.7c-.4 0-.8.4-.8.8s.4.8.8.8h3.7v3.7c0 .4.4.8.8.8s.8-.4.8-.8v-3.7h3.7c.4 0 .8-.4.8-.8s-.4-.8-.8-.8zM155 17.4h-3.7v-3.7c0-.4-.4-.8-.8-.8s-.8.4-.8.8v3.7H146c-.4 0-.8.4-.8.8s.4.8.8.8h3.7v3.7c0 .4.4.8.8.8s.8-.4.8-.8V19h3.7c.4 0 .8-.4.8-.8s-.4-.8-.8-.8zM333 260h-3.7v-3.7c0-.4-.4-.8-.8-.8s-.8.4-.8.8v3.7H324c-.4 0-.8.4-.8.8s.4.8.8.8h3.7v3.7c0 .4.4.8.8.8s.8-.4.8-.8v-3.7h3.7c.4 0 .8-.4.8-.8s-.4-.8-.8-.8zm-177.9-40.7h-3.7v-3.7c0-.4-.4-.8-.8-.8s-.8.4-.8.8v3.7h-3.7c-.4 0-.8.4-.8.8s.4.8.8.8h3.7v3.7c0 .4.4.8.8.8s.8-.4.8-.8v-3.7h3.7c.4 0 .8-.4.8-.8 0-.5-.4-.8-.8-.8z" class="st9"/><path d="M199.5 178.9h-3.7v-3.7c0-.4-.4-.8-.8-.8s-.8.4-.8.8v3.7h-3.7c-.4 0-.8.4-.8.8s.4.8.8.8h3.7v3.7c0 .4.4.8.8.8s.8-.4.8-.8v-3.7h3.7c.4 0 .8-.4.8-.8 0-.5-.4-.8-.8-.8zm88.9 0h-3.7v-3.7c0-.4-.4-.8-.8-.8s-.8.4-.8.8v3.7h-3.7c-.4 0-.8.4-.8.8s.4.8.8.8h3.7v3.7c0 .4.4.8.8.8s.8-.4.8-.8v-3.7h3.7c.4 0 .8-.4.8-.8 0-.5-.3-.8-.8-.8z" class="st11"/><path d="M244 259.6h-3.7v-3.7c0-.4-.4-.8-.8-.8s-.8.4-.8.8v3.7H235c-.4 0-.8.4-.8.8s.4.8.8.8h3.7v3.7c0 .4.4.8.8.8s.8-.4.8-.8v-3.7h3.7c.4 0 .8-.4.8-.8s-.4-.8-.8-.8z" class="st9"/><path d="M199.5 138.5h-3.7v-3.7c0-.4-.4-.8-.8-.8s-.8.4-.8.8v3.7h-3.7c-.4 0-.8.4-.8.8s.4.8.8.8h3.7v3.7c0 .4.4.8.8.8s.8-.4.8-.8v-3.7h3.7c.4 0 .8-.4.8-.8s-.4-.8-.8-.8z" class="st10"/><path d="M332.9 57.8h-3.7v-3.7c0-.4-.4-.8-.8-.8s-.8.4-.8.8v3.7h-3.7c-.4 0-.8.4-.8.8s.4.8.8.8h3.7v3.7c0 .4.4.8.8.8s.8-.4.8-.8v-3.7h3.7c.4 0 .8-.4.8-.8 0-.5-.3-.8-.8-.8z" class="st9"/><path d="M288.4 219.3h-3.7v-3.7c0-.4-.4-.8-.8-.8s-.8.4-.8.8v3.7h-3.7c-.4 0-.8.4-.8.8s.4.8.8.8h3.7v3.7c0 .4.4.8.8.8s.8-.4.8-.8v-3.7h3.7c.4 0 .8-.4.8-.8 0-.5-.3-.8-.8-.8zM21.6 98.5h-3.7v-3.7c0-.4-.4-.8-.8-.8s-.8.4-.8.8v3.7h-3.7c-.4 0-.8.4-.8.8s.4.8.8.8h3.7v3.7c0 .4.4.8.8.8s.8-.4.8-.8v-3.7h3.7c.4 0 .8-.4.8-.8s-.4-.8-.8-.8z" class="st10"/></g></g></switch></svg>