<?xml version="1.0" encoding="UTF-8" standalone="no"?>
<svg
   id="a8edc334-d493-425b-bf72-201791917c89"
   data-name="Icon"
   viewBox="0 0 29.875503 16.667207"
   version="1.1"
   sodipodi:docname="rh-icon-view.svg"
   inkscape:version="1.2.1 (9c6d41e410, 2022-07-14)"
   width="29.875504"
   height="16.667208"
   xmlns:inkscape="http://www.inkscape.org/namespaces/inkscape"
   xmlns:sodipodi="http://sodipodi.sourceforge.net/DTD/sodipodi-0.dtd"
   xmlns="http://www.w3.org/2000/svg"
   xmlns:svg="http://www.w3.org/2000/svg">
  <defs
     id="defs11" />
  <sodipodi:namedview
     id="namedview9"
     pagecolor="#505050"
     bordercolor="#eeeeee"
     borderopacity="1"
     inkscape:showpageshadow="0"
     inkscape:pageopacity="0"
     inkscape:pagecheckerboard="0"
     inkscape:deskcolor="#505050"
     showgrid="false"
     inkscape:zoom="28.527778"
     inkscape:cx="9.9026289"
     inkscape:cy="-1.647517"
     inkscape:window-width="2560"
     inkscape:window-height="1440"
     inkscape:window-x="0"
     inkscape:window-y="0"
     inkscape:window-maximized="1"
     inkscape:current-layer="a8edc334-d493-425b-bf72-201791917c89" />
  <g
     id="g6"
     transform="translate(-3.0894117,-9.6655234)">
    <path
       id="path2"
       d="M 17.996094,9.6660156 C 12.408527,9.6236758 6.8183118,12.314988 3.5947932,16.920671 c -0.4804978,0.508987 -0.7519791,1.31082 -0.1948456,1.873746 3.3016903,4.9149 9.2653764,7.753725 15.1447774,7.525528 5.701412,-0.09474 11.377309,-3.081062 14.371291,-7.984007 0.266151,-0.861217 -0.622219,-1.487457 -1.025518,-2.141829 C 28.587405,12.006472 23.29859,9.636439 17.996094,9.6660156 Z m 0.02344,1.9335934 c 4.942829,-0.02382 9.914049,2.311524 12.779297,6.388672 -2.154118,2.879851 -5.286648,5.006984 -8.770653,5.910071 -3.661472,0.957369 -7.652917,0.558892 -11.051422,-1.110755 -2.2660289,-1.12077 -4.2573128,-2.77855 -5.7755811,-4.801269 2.8983026,-4.075101 7.8556031,-6.404669 12.8183591,-6.386719 z" />
    <path
       id="path4"
       d="m 17.974609,13.03125 c -2.159513,-0.01534 -4.252629,1.485434 -4.738281,3.623047 -0.668601,2.372283 0.603517,5.193573 3.000073,5.988959 2.390948,0.963405 5.457812,-0.254922 6.337086,-2.727186 0.998205,-2.400589 -0.11428,-5.565705 -2.626815,-6.491179 -0.6229,-0.259617 -1.300113,-0.374903 -1.972063,-0.393641 z m 0.699219,2.070312 c 1.799724,0.49712 2.754084,2.791779 1.760494,4.391406 -0.69325,1.322315 -2.515032,1.966957 -3.805532,1.100873 -1.554037,-0.889683 -1.948366,-3.203587 -0.738816,-4.536668 0.66122,-0.779797 1.771046,-1.256938 2.783854,-0.955611 z" />
  </g>
</svg>
