<svg id="fd790bf7-2d46-4dfc-856d-1fad8acb312b" data-name="Icon" xmlns="http://www.w3.org/2000/svg" viewBox="0 0 36 36">
  <defs>
    <style>
      .a8e20af0-43e3-45ff-8e69-7654fb75f5fa {
        fill: #e00;
      }
    </style>
  </defs>
  <g>
    <path class="a8e20af0-43e3-45ff-8e69-7654fb75f5fa" d="M26,19.38a.62.62,0,0,0-.62.62v6.38H22a.62.62,0,0,0-.62.62v3.38H6.62V27.62c.46.05,1-.06,1-.62s-.54-.67-1-.62V21.62c.46.05,1-.06,1-.62s-.54-.67-1-.62V15.62c.46.05,1-.06,1-.62s-.54-.67-1-.62V9.62c.46.05,1-.06,1-.62s-.54-.67-1-.62V5.62H25.38V8a.62.62,0,1,0,1.24,0V5A.62.62,0,0,0,26,4.38H6A.62.62,0,0,0,5.38,5V8.38c-.46-.05-1,.06-1,.62s.54.67,1,.62v4.76c-.46-.05-1,.06-1,.62s.54.67,1,.62v4.76c-.46-.05-1,.06-1,.62s.54.67,1,.62v4.76c-.46-.05-1,.06-1,.62s.54.67,1,.62V31a.62.62,0,0,0,.62.62H22a.6.6,0,0,0,.44-.18l4-4a.7.7,0,0,0,.18-.44V20A.62.62,0,0,0,26,19.38ZM22.62,29.49V27.62h1.87Z"/>
    <path class="a8e20af0-43e3-45ff-8e69-7654fb75f5fa" d="M31.44,10.56l-2-2a.61.61,0,0,0-.88,0l-13,13a1.27,1.27,0,0,0-.13.19l-1.61,3.6a.63.63,0,0,0,.83.83l3.6-1.61.19-.13,13-13A.61.61,0,0,0,31.44,10.56ZM27,11.88,28.12,13,18,23.12,16.88,22ZM16.2,23.09l.71.71-1.28.57Zm12.8-11L27.88,11,29,9.88,30.12,11Z"/>
  </g>
</svg>
