<svg xmlns="http://www.w3.org/2000/svg" viewBox="0 0 36 36"><defs><style>.cls-1{fill:none;}.cls-2{fill:#e00;}</style></defs><g id="Layer_5" data-name="Layer 5"><rect class="cls-1" x="10.63" y="8.63" width="3.75" height="18.75"/><rect class="cls-1" x="5.63" y="8.63" width="3.75" height="18.75"/><rect class="cls-1" x="10.63" y="5.63" width="3.75" height="1.75"/><rect class="cls-1" x="5.63" y="5.63" width="3.75" height="1.75"/><rect class="cls-1" x="20.69" y="7.2" width="3.8" height="21.41" transform="translate(-5.33 10.74) rotate(-24)"/><rect class="cls-1" x="5.63" y="28.63" width="3.75" height="1.75"/><rect class="cls-1" x="10.63" y="28.63" width="3.75" height="1.75"/><path class="cls-2" d="M30.76,28.5C28.8,24.08,22.07,9,20.19,4.75a.62.62,0,0,0-1.14.5l.42,1L16,7.75l-.37-.83V5A.62.62,0,0,0,15,4.38H5A.62.62,0,0,0,4.38,5c0,1.15,0,21.17,0,23v3a.62.62,0,0,0,.62.62H15a.62.62,0,0,0,.62-.62V10L25,31.06a.63.63,0,0,0,1.15-.51l-.43-.95,3.48-1.55.42,1A.62.62,0,0,0,30.76,28.5ZM14.38,7.38H10.62V5.62h3.76Zm0,20H10.62V8.62h3.76ZM5.62,8.62H9.38V27.38H5.62Zm3.76-3V7.38H5.62V5.62Zm-3.76,23H9.38v1.76H5.62Zm5,1.76V28.62h3.76v1.76Zm14.59-1.92L16.5,8.9,20,7.35l8.71,19.56Z"/></g></svg>