<?xml version="1.0" encoding="UTF-8"?><svg id="Layer_2" xmlns="http://www.w3.org/2000/svg" viewBox="0 0 50.48 28.4"><defs><style>.cls-1{fill:none;}.cls-1,.cls-2{stroke-width:0px;}.cls-2{fill:#e00;}</style></defs><g id="Layer_1-2"><path class="cls-1" d="m2.02,19.19c.05,2.92,4.39,2.92,4.44,0-.05-2.92-4.39-2.92-4.44,0Z"/><path class="cls-1" d="m44.02,19.19c.05,2.92,4.39,2.92,4.44,0-.05-2.92-4.39-2.92-4.44,0Z"/><path class="cls-2" d="m42.21,17.92l-3.18-.1-2.2-7.5c-.12-.42-.5-.71-.94-.72-.45-.03-.83.27-.97.68l-3.82,11.34L26.26.77c-.11-.45-.51-.77-.97-.77h0c-.47,0-.87.32-.97.78l-5.27,22.91-4.38-13.26c-.14-.41-.52-.69-.95-.69h0c-.43,0-.81.28-.95.69l-2.45,7.5h-2.05C7.01,13.66.13,14.07,0,19.19c.14,5.33,7.57,5.56,8.39.74h2.65c.43,0,.82-.28.95-.69l1.73-5.3,4.55,13.77c.14.41.52.69.95.69.02,0,.03,0,.05,0,.45-.02.83-.34.93-.78l5.1-22.19,4.67,20.07c.1.44.48.75.93.77.44.02.85-.26,1-.68l3.93-11.67,1.51,5.14c.12.41.5.7.93.72l3.84.12c.81,4.84,8.26,4.61,8.39-.72-.13-5.12-7-5.53-8.27-1.27Zm-40.2,1.27c.05-2.92,4.39-2.92,4.44,0-.05,2.92-4.39,2.92-4.44,0Zm42,0c.05-2.92,4.39-2.92,4.44,0-.05,2.92-4.39,2.92-4.44,0Z"/></g></svg>